<svg width="208" height="38" viewBox="0 0 208 38" fill="none" xmlns="http://www.w3.org/2000/svg">
<path d="M21.64 37L19.912 29.848H10.216L8.536 37H0.376L10.408 3.736H19.96L29.992 37H21.64ZM11.56 24.136H18.568L15.064 9.448L11.56 24.136ZM47.2165 10.696C49.4245 10.696 51.1525 11.368 52.4005 12.712C53.6485 14.056 54.2725 15.944 54.2725 18.376V37H46.6885V19.672C46.6885 18.392 46.4805 17.512 46.0645 17.032C45.6805 16.52 45.0885 16.264 44.2885 16.264C42.7525 16.264 41.2805 17.368 39.8725 19.576V37H32.2885V11.512H38.9125L39.4405 14.536C40.5285 13.256 41.6965 12.296 42.9445 11.656C44.2245 11.016 45.6485 10.696 47.2165 10.696ZM82.8396 1.384V37H76.1196L75.7356 34.024C73.9436 36.552 71.5276 37.816 68.4876 37.816C65.3196 37.816 62.9036 36.6 61.2396 34.168C59.6076 31.736 58.7916 28.408 58.7916 24.184C58.7916 21.592 59.2236 19.272 60.0876 17.224C60.9516 15.176 62.1676 13.576 63.7356 12.424C65.3356 11.272 67.1596 10.696 69.2076 10.696C71.6396 10.696 73.6556 11.496 75.2556 13.096V0.567997L82.8396 1.384ZM70.8396 32.248C72.5996 32.248 74.0716 31.288 75.2556 29.368V18.376C74.6476 17.64 74.0236 17.096 73.3836 16.744C72.7756 16.392 72.0716 16.216 71.2716 16.216C69.8636 16.216 68.7436 16.872 67.9116 18.184C67.0796 19.496 66.6636 21.512 66.6636 24.232C66.6636 27.208 67.0156 29.288 67.7196 30.472C68.4556 31.656 69.4956 32.248 70.8396 32.248ZM110.997 23.752C110.997 24.808 110.949 25.72 110.853 26.488H95.0609C95.3169 28.632 95.9249 30.136 96.8849 31C97.8449 31.864 99.1729 32.296 100.869 32.296C101.893 32.296 102.885 32.12 103.845 31.768C104.805 31.384 105.845 30.808 106.965 30.04L110.085 34.264C107.109 36.632 103.797 37.816 100.149 37.816C96.0209 37.816 92.8529 36.6 90.6449 34.168C88.4369 31.736 87.3329 28.472 87.3329 24.376C87.3329 21.784 87.7969 19.464 88.7249 17.416C89.6529 15.336 91.0129 13.704 92.8049 12.52C94.5969 11.304 96.7409 10.696 99.2369 10.696C102.917 10.696 105.797 11.848 107.877 14.152C109.957 16.456 110.997 19.656 110.997 23.752ZM103.557 21.592C103.493 17.688 102.117 15.736 99.4289 15.736C98.1169 15.736 97.0929 16.216 96.3569 17.176C95.6529 18.136 95.2209 19.72 95.0609 21.928H103.557V21.592ZM129.081 10.792C130.009 10.792 130.857 10.904 131.625 11.128L130.425 18.472C129.465 18.248 128.697 18.136 128.121 18.136C126.617 18.136 125.465 18.664 124.665 19.72C123.897 20.744 123.289 22.296 122.841 24.376V37H115.257V11.512H121.881L122.505 16.456C123.081 14.696 123.945 13.32 125.097 12.328C126.281 11.304 127.609 10.792 129.081 10.792ZM142.936 10.696C144.76 10.696 146.472 10.968 148.072 11.512C149.672 12.056 151.08 12.824 152.296 13.816L149.512 18.088C147.432 16.776 145.336 16.12 143.224 16.12C142.232 16.12 141.464 16.296 140.92 16.648C140.408 16.968 140.152 17.432 140.152 18.04C140.152 18.52 140.264 18.92 140.488 19.24C140.744 19.528 141.24 19.832 141.976 20.152C142.712 20.472 143.848 20.856 145.384 21.304C148.04 22.072 150.008 23.08 151.288 24.328C152.6 25.544 153.256 27.24 153.256 29.416C153.256 31.144 152.76 32.648 151.768 33.928C150.776 35.176 149.416 36.136 147.688 36.808C145.96 37.48 144.04 37.816 141.928 37.816C139.784 37.816 137.784 37.48 135.928 36.808C134.104 36.136 132.552 35.208 131.272 34.024L134.968 29.896C137.112 31.56 139.368 32.392 141.736 32.392C142.888 32.392 143.784 32.184 144.424 31.768C145.096 31.352 145.432 30.76 145.432 29.992C145.432 29.384 145.304 28.904 145.048 28.552C144.792 28.2 144.296 27.88 143.56 27.592C142.824 27.272 141.656 26.888 140.056 26.44C137.528 25.704 135.64 24.68 134.392 23.368C133.144 22.056 132.52 20.424 132.52 18.472C132.52 17 132.936 15.688 133.768 14.536C134.632 13.352 135.848 12.424 137.416 11.752C139.016 11.048 140.856 10.696 142.936 10.696ZM168.204 10.696C172.108 10.696 175.164 11.896 177.372 14.296C179.58 16.664 180.684 19.992 180.684 24.28C180.684 27 180.172 29.384 179.148 31.432C178.156 33.448 176.716 35.016 174.828 36.136C172.972 37.256 170.764 37.816 168.204 37.816C164.332 37.816 161.276 36.632 159.036 34.264C156.828 31.864 155.724 28.52 155.724 24.232C155.724 21.512 156.22 19.144 157.212 17.128C158.236 15.08 159.676 13.496 161.532 12.376C163.42 11.256 165.644 10.696 168.204 10.696ZM168.204 16.264C166.668 16.264 165.516 16.92 164.748 18.232C163.98 19.512 163.596 21.512 163.596 24.232C163.596 27.016 163.964 29.048 164.7 30.328C165.468 31.608 166.636 32.248 168.204 32.248C169.74 32.248 170.892 31.608 171.66 30.328C172.428 29.016 172.812 27 172.812 24.28C172.812 21.496 172.428 19.464 171.66 18.184C170.924 16.904 169.772 16.264 168.204 16.264ZM200.123 10.696C202.331 10.696 204.059 11.368 205.307 12.712C206.555 14.056 207.179 15.944 207.179 18.376V37H199.595V19.672C199.595 18.392 199.387 17.512 198.971 17.032C198.587 16.52 197.995 16.264 197.195 16.264C195.659 16.264 194.187 17.368 192.779 19.576V37H185.195V11.512H191.819L192.347 14.536C193.435 13.256 194.603 12.296 195.851 11.656C197.131 11.016 198.555 10.696 200.123 10.696Z" fill="#141414"/>
</svg>
