<svg width="1280" height="1164" viewBox="0 0 1280 1164" fill="none" xmlns="http://www.w3.org/2000/svg">
<rect x="496" y="478" width="328" height="686" rx="48" fill="url(#paint0_linear_5_283)"/>
<rect x="506" y="487" width="308" height="667" rx="38" fill="url(#paint1_linear_5_283)"/>
<path d="M566 487C566 487 572.5 487 573 494V496C573 496 573.5 510.5 589 512C589 512 714 514 730 512C746 510 746 496 746 496V494C746 494 746 487.5 753 487H566Z" fill="#0F0C0F"/>
<path d="M634 500H666" stroke="#505050" stroke-width="4" stroke-linecap="round" stroke-linejoin="round"/>
<circle cx="685" cy="500" r="4" fill="#505050"/>
<path d="M660.105 793.962L586.105 921.979H564L660.526 756L756 921.979L676.737 922.084L670.737 934V903.103L723.158 902.998L660.105 793.962Z" fill="url(#paint2_linear_5_283)"/>
<path d="M648.526 934V903.314H629.579L660.211 847.953L687.684 896.882H709.263L660.105 808.514L596.526 922.084H642.737L648.526 934Z" fill="url(#paint3_linear_5_283)"/>
<path d="M353 161L424.5 232.5V330.5L558 464" stroke="url(#paint4_linear_5_283)" stroke-width="3"/>
<path d="M357 157C357 161.418 353.418 165 349 165C344.582 165 341 161.418 341 157C341 152.582 344.582 149 349 149C353.418 149 357 152.582 357 157ZM344.2 157C344.2 159.651 346.349 161.8 349 161.8C351.651 161.8 353.8 159.651 353.8 157C353.8 154.349 351.651 152.2 349 152.2C346.349 152.2 344.2 154.349 344.2 157Z" fill="#4338CA"/>
<circle cx="349" cy="157" r="5" fill="#16161A"/>
<path d="M353.295 104.371C353.152 105.888 352.592 107.073 351.615 107.926C350.639 108.772 349.34 109.195 347.719 109.195C346.586 109.195 345.587 108.928 344.721 108.395C343.861 107.854 343.197 107.089 342.729 106.1C342.26 105.11 342.016 103.961 341.996 102.652V101.324C341.996 99.9831 342.234 98.8014 342.709 97.7793C343.184 96.7572 343.865 95.9694 344.75 95.416C345.642 94.8626 346.671 94.5859 347.836 94.5859C349.405 94.5859 350.668 95.0124 351.625 95.8652C352.582 96.7181 353.139 97.9225 353.295 99.4785H350.834C350.717 98.4564 350.417 97.7207 349.936 97.2715C349.46 96.8158 348.76 96.5879 347.836 96.5879C346.762 96.5879 345.935 96.9818 345.355 97.7695C344.783 98.5508 344.49 99.6999 344.477 101.217V102.477C344.477 104.013 344.75 105.185 345.297 105.992C345.85 106.799 346.658 107.203 347.719 107.203C348.689 107.203 349.418 106.985 349.906 106.549C350.395 106.113 350.704 105.387 350.834 104.371H353.295ZM368.859 102.262C368.859 103.655 368.618 104.879 368.137 105.934C367.655 106.982 366.965 107.789 366.066 108.355C365.174 108.915 364.146 109.195 362.98 109.195C361.828 109.195 360.799 108.915 359.895 108.355C358.996 107.789 358.299 106.985 357.805 105.943C357.316 104.902 357.069 103.701 357.062 102.34V101.539C357.062 100.152 357.307 98.9284 357.795 97.8672C358.29 96.806 358.983 95.9954 359.875 95.4355C360.773 94.8691 361.802 94.5859 362.961 94.5859C364.12 94.5859 365.145 94.8659 366.037 95.4258C366.936 95.9792 367.629 96.7799 368.117 97.8281C368.605 98.8698 368.853 100.084 368.859 101.471V102.262ZM366.389 101.52C366.389 99.944 366.089 98.7363 365.49 97.8965C364.898 97.0566 364.055 96.6367 362.961 96.6367C361.893 96.6367 361.057 97.0566 360.451 97.8965C359.852 98.7298 359.546 99.9115 359.533 101.441V102.262C359.533 103.824 359.836 105.032 360.441 105.885C361.053 106.738 361.9 107.164 362.98 107.164C364.074 107.164 364.914 106.747 365.5 105.914C366.092 105.081 366.389 103.863 366.389 102.262V101.52ZM373.32 109V94.7812H377.52C378.776 94.7812 379.889 95.0612 380.859 95.6211C381.836 96.181 382.591 96.9753 383.125 98.0039C383.659 99.0326 383.926 100.211 383.926 101.539V102.252C383.926 103.6 383.656 104.785 383.115 105.807C382.581 106.829 381.816 107.617 380.82 108.17C379.831 108.723 378.695 109 377.412 109H373.32ZM375.791 96.7734V107.027H377.402C378.698 107.027 379.691 106.624 380.381 105.816C381.077 105.003 381.432 103.837 381.445 102.32V101.529C381.445 99.9863 381.11 98.8079 380.439 97.9941C379.769 97.1803 378.796 96.7734 377.52 96.7734H375.791ZM396.697 102.652H390.857V107.027H397.684V109H388.387V94.7812H397.615V96.7734H390.857V100.699H396.697V102.652ZM404.166 103.717V109H401.695V94.7812H407.135C408.723 94.7812 409.983 95.1947 410.914 96.0215C411.852 96.8483 412.32 97.9421 412.32 99.3027C412.32 100.696 411.861 101.78 410.943 102.555C410.032 103.329 408.753 103.717 407.105 103.717H404.166ZM404.166 101.734H407.135C408.014 101.734 408.684 101.529 409.146 101.119C409.609 100.702 409.84 100.104 409.84 99.3223C409.84 98.554 409.605 97.9421 409.137 97.4863C408.668 97.0241 408.023 96.7865 407.203 96.7734H404.166V101.734ZM424.799 102.652H418.959V107.027H425.785V109H416.488V94.7812H425.717V96.7734H418.959V100.699H424.799V102.652ZM441.076 109H438.605L432.268 98.9121V109H429.797V94.7812H432.268L438.625 104.908V94.7812H441.076V109Z" fill="#4338CA"/>
<path d="M342.018 132.916H341.22L345.673 121.336H346.464L342.018 132.916ZM354.066 129.012H349.225L348.126 132H347.182L351.217 121.336H352.074L356.11 132H355.172L354.066 129.012ZM349.503 128.243H353.781L351.642 122.435L349.503 128.243ZM365.624 132H364.723L358.593 122.874V132H357.685V121.336H358.593L364.73 130.469V121.336H365.624V132ZM368.334 132V121.336H371.315C372.189 121.336 372.973 121.536 373.666 121.937C374.359 122.332 374.899 122.901 375.285 123.643C375.675 124.385 375.871 125.23 375.871 126.177V127.159C375.871 128.111 375.678 128.956 375.292 129.693C374.906 130.43 374.362 130.999 373.659 131.399C372.96 131.8 372.157 132 371.249 132H368.334ZM369.235 122.105V131.238H371.256C372.379 131.238 373.28 130.867 373.959 130.125C374.638 129.378 374.977 128.37 374.977 127.1V126.163C374.977 124.937 374.643 123.956 373.974 123.218C373.305 122.481 372.423 122.11 371.33 122.105H369.235ZM384.052 126.888H379.064V131.238H384.799V132H378.163V121.336H384.762V122.105H379.064V126.126H384.052V126.888ZM390.688 127.562H387.589V132H386.681V121.336H390.146C391.283 121.336 392.172 121.612 392.812 122.164C393.451 122.715 393.771 123.487 393.771 124.478C393.771 125.162 393.571 125.765 393.17 126.287C392.77 126.81 392.233 127.171 391.559 127.371L394.225 131.905V132H393.266L390.688 127.562ZM387.589 126.792H390.351C391.107 126.792 391.715 126.578 392.174 126.148C392.633 125.718 392.863 125.162 392.863 124.478C392.863 123.726 392.624 123.143 392.145 122.728C391.667 122.312 390.995 122.105 390.131 122.105H387.589V126.792ZM402.26 129.378C402.26 128.787 402.052 128.321 401.637 127.979C401.222 127.632 400.463 127.305 399.359 126.998C398.256 126.685 397.45 126.346 396.942 125.979C396.22 125.462 395.858 124.783 395.858 123.943C395.858 123.128 396.193 122.466 396.862 121.958C397.536 121.446 398.395 121.189 399.44 121.189C400.148 121.189 400.78 121.326 401.337 121.6C401.898 121.873 402.333 122.254 402.641 122.742C402.948 123.23 403.102 123.775 403.102 124.375H402.194C402.194 123.648 401.945 123.064 401.447 122.625C400.949 122.181 400.28 121.958 399.44 121.958C398.625 121.958 397.975 122.142 397.492 122.508C397.008 122.869 396.767 123.343 396.767 123.929C396.767 124.471 396.984 124.913 397.418 125.254C397.853 125.596 398.549 125.899 399.506 126.163C400.463 126.421 401.188 126.692 401.681 126.976C402.174 127.254 402.545 127.588 402.794 127.979C403.043 128.37 403.168 128.831 403.168 129.363C403.168 130.203 402.831 130.877 402.157 131.385C401.488 131.893 400.604 132.146 399.506 132.146C398.754 132.146 398.063 132.012 397.433 131.744C396.808 131.475 396.332 131.099 396.005 130.616C395.683 130.132 395.521 129.578 395.521 128.953H396.422C396.422 129.705 396.703 130.298 397.265 130.733C397.826 131.167 398.573 131.385 399.506 131.385C400.336 131.385 401.002 131.202 401.505 130.835C402.008 130.469 402.26 129.983 402.26 129.378ZM412.997 127.247C412.997 128.228 412.826 129.09 412.484 129.832C412.147 130.574 411.664 131.146 411.034 131.546C410.404 131.946 409.677 132.146 408.852 132.146C407.606 132.146 406.601 131.702 405.834 130.813C405.067 129.92 404.684 128.716 404.684 127.203V126.104C404.684 125.132 404.855 124.273 405.197 123.526C405.543 122.774 406.032 122.198 406.662 121.797C407.292 121.392 408.017 121.189 408.837 121.189C409.657 121.189 410.38 121.387 411.005 121.783C411.635 122.178 412.121 122.737 412.462 123.46C412.804 124.183 412.982 125.02 412.997 125.972V127.247ZM412.096 126.089C412.096 124.805 411.806 123.799 411.225 123.072C410.644 122.344 409.848 121.98 408.837 121.98C407.846 121.98 407.055 122.347 406.464 123.079C405.878 123.807 405.585 124.825 405.585 126.133V127.247C405.585 128.511 405.878 129.515 406.464 130.257C407.05 130.994 407.846 131.363 408.852 131.363C409.872 131.363 410.668 130.999 411.239 130.271C411.811 129.539 412.096 128.521 412.096 127.217V126.089ZM423.207 132H422.306L416.176 122.874V132H415.268V121.336H416.176L422.313 130.469V121.336H423.207V132ZM428.437 127.664H424.928V126.924H428.437V127.664ZM435.966 129.012H431.125L430.026 132H429.081L433.117 121.336H433.974L438.009 132H437.072L435.966 129.012ZM431.403 128.243H435.68L433.542 122.435L431.403 128.243ZM447.523 132H446.623L440.492 122.874V132H439.584V121.336H440.492L446.63 130.469V121.336H447.523V132ZM450.233 132V121.336H453.214C454.088 121.336 454.872 121.536 455.565 121.937C456.259 122.332 456.798 122.901 457.184 123.643C457.575 124.385 457.77 125.23 457.77 126.177V127.159C457.77 128.111 457.577 128.956 457.191 129.693C456.806 130.43 456.261 130.999 455.558 131.399C454.86 131.8 454.057 132 453.148 132H450.233ZM451.134 122.105V131.238H453.156C454.279 131.238 455.18 130.867 455.858 130.125C456.537 129.378 456.876 128.37 456.876 127.1V126.163C456.876 124.937 456.542 123.956 455.873 123.218C455.204 122.481 454.323 122.11 453.229 122.105H451.134ZM464.047 127.562H460.949V132H460.041V121.336H463.505C464.643 121.336 465.531 121.612 466.171 122.164C466.811 122.715 467.13 123.487 467.13 124.478C467.13 125.162 466.93 125.765 466.53 126.287C466.129 126.81 465.592 127.171 464.918 127.371L467.584 131.905V132H466.625L464.047 127.562ZM460.949 126.792H463.71C464.467 126.792 465.075 126.578 465.534 126.148C465.993 125.718 466.222 125.162 466.222 124.478C466.222 123.726 465.983 123.143 465.504 122.728C465.026 122.312 464.354 122.105 463.49 122.105H460.949V126.792ZM475.473 126.888H470.485V131.238H476.22V132H469.584V121.336H476.183V122.105H470.485V126.126H475.473V126.888Z" fill="#FFFFFE"/>
<path d="M269.438 146.664L292.992 162.367V148.344L279.945 139.633L269.438 146.664ZM267.016 141.039L274.555 136L267.016 130.961V141.039ZM299.008 162.367L322.562 146.664L312.055 139.633L299.008 148.344V162.367ZM296 143.109L306.625 136L296 128.891L285.375 136L296 143.109ZM279.945 132.367L292.992 123.656V109.633L269.438 125.336L279.945 132.367ZM317.445 136L324.984 141.039V130.961L317.445 136ZM312.055 132.367L322.562 125.336L299.008 109.633V123.656L312.055 132.367ZM331 125.336V146.664C331 147.732 330.557 148.565 329.672 149.164L297.68 170.492C297.133 170.831 296.573 171 296 171C295.427 171 294.867 170.831 294.32 170.492L262.328 149.164C261.443 148.565 261 147.732 261 146.664V125.336C261 124.268 261.443 123.435 262.328 122.836L294.32 101.508C294.867 101.169 295.427 101 296 101C296.573 101 297.133 101.169 297.68 101.508L329.672 122.836C330.557 123.435 331 124.268 331 125.336Z" fill="#16161A"/>
<path d="M279.945 132.367L292.992 123.656V109.633L269.438 125.336L279.945 132.367Z" fill="#4338CA"/>
<path d="M267.016 141.039L274.555 136L267.016 130.961V141.039Z" fill="#4338CA"/>
<path d="M269.438 146.664L292.992 162.367V148.344L279.945 139.633L269.438 146.664Z" fill="#4338CA"/>
<path d="M296 143.109L306.625 136L296 128.891L285.375 136L296 143.109Z" fill="#4338CA"/>
<path d="M299.008 162.367L322.563 146.664L312.055 139.633L299.008 148.344V162.367Z" fill="#4338CA"/>
<path d="M317.445 136L324.984 141.039V130.961L317.445 136Z" fill="#4338CA"/>
<path d="M312.055 132.367L322.563 125.336L299.008 109.633V123.656L312.055 132.367Z" fill="#4338CA"/>
<path d="M626.5 89V186.5L564 249V327L626.5 389.5V470" stroke="url(#paint5_linear_5_283)" stroke-width="3"/>
<path d="M635 83C635 87.4183 631.418 91 627 91C622.582 91 619 87.4183 619 83C619 78.5817 622.582 75 627 75C631.418 75 635 78.5817 635 83ZM622.2 83C622.2 85.651 624.349 87.8 627 87.8C629.651 87.8 631.8 85.651 631.8 83C631.8 80.349 629.651 78.2 627 78.2C624.349 78.2 622.2 80.349 622.2 83Z" fill="#4338CA"/>
<circle cx="627" cy="83" r="5" fill="#16161A"/>
<path d="M678.344 28.1543C677.829 28.8249 677.117 29.3327 676.205 29.6777C675.294 30.0228 674.258 30.1953 673.1 30.1953C671.908 30.1953 670.854 29.9251 669.936 29.3848C669.018 28.8444 668.308 28.0729 667.807 27.0703C667.312 26.0612 667.055 24.8861 667.035 23.5449V22.4316C667.035 20.2832 667.549 18.6068 668.578 17.4023C669.607 16.1914 671.042 15.5859 672.885 15.5859C674.467 15.5859 675.723 15.9766 676.654 16.7578C677.585 17.5391 678.145 18.6654 678.334 20.1367H675.912C675.639 18.4245 674.646 17.5684 672.934 17.5684C671.827 17.5684 670.984 17.9688 670.404 18.7695C669.831 19.5638 669.535 20.7324 669.516 22.2754V23.3691C669.516 24.9056 669.838 26.1003 670.482 26.9531C671.133 27.7995 672.035 28.2227 673.188 28.2227C674.451 28.2227 675.349 27.9362 675.883 27.3633V24.5801H672.953V22.7051H678.344V28.1543ZM685.666 30H683.205V15.7812H685.666V30ZM700.684 17.7734H696.25V30H693.799V17.7734H689.404V15.7812H700.684V17.7734ZM715.848 30H713.387V23.6816H707.029V30H704.559V15.7812H707.029V21.6992H713.387V15.7812H715.848V30ZM731.178 15.7812V25.2832C731.178 26.7936 730.693 27.9915 729.723 28.877C728.759 29.7559 727.473 30.1953 725.865 30.1953C724.238 30.1953 722.945 29.7624 721.988 28.8965C721.031 28.0241 720.553 26.8164 720.553 25.2734V15.7812H723.014V25.293C723.014 26.2435 723.255 26.9694 723.736 27.4707C724.218 27.972 724.928 28.2227 725.865 28.2227C727.766 28.2227 728.717 27.2201 728.717 25.2148V15.7812H731.178ZM735.824 30V15.7812H740.697C742.305 15.7812 743.529 16.1035 744.369 16.748C745.209 17.3926 745.629 18.3529 745.629 19.6289C745.629 20.2799 745.453 20.8659 745.102 21.3867C744.75 21.9076 744.236 22.3112 743.559 22.5977C744.327 22.806 744.919 23.1999 745.336 23.7793C745.759 24.3522 745.971 25.0423 745.971 25.8496C745.971 27.1842 745.541 28.2096 744.682 28.9258C743.829 29.6419 742.605 30 741.01 30H735.824ZM738.295 23.584V28.0273H741.039C741.814 28.0273 742.419 27.8353 742.855 27.4512C743.292 27.0671 743.51 26.5332 743.51 25.8496C743.51 24.3717 742.755 23.6165 741.244 23.584H738.295ZM738.295 21.7676H740.717C741.485 21.7676 742.084 21.5951 742.514 21.25C742.95 20.8984 743.168 20.4036 743.168 19.7656C743.168 19.0625 742.966 18.5547 742.562 18.2422C742.165 17.9297 741.544 17.7734 740.697 17.7734H738.295V21.7676Z" fill="#4338CA"/>
<path d="M667.018 53.9155H666.22L670.673 42.3359H671.464L667.018 53.9155ZM679.066 50.0117H674.225L673.126 53H672.182L676.217 42.3359H677.074L681.11 53H680.172L679.066 50.0117ZM674.503 49.2427H678.781L676.642 43.4346L674.503 49.2427ZM690.624 53H689.723L683.593 43.874V53H682.685V42.3359H683.593L689.73 51.4692V42.3359H690.624V53ZM693.334 53V42.3359H696.315C697.189 42.3359 697.973 42.5361 698.666 42.9365C699.359 43.332 699.899 43.9009 700.285 44.6431C700.675 45.3853 700.871 46.23 700.871 47.1772V48.1587C700.871 49.1108 700.678 49.9556 700.292 50.6929C699.906 51.4302 699.362 51.999 698.659 52.3994C697.96 52.7998 697.157 53 696.249 53H693.334ZM694.235 43.105V52.2383H696.256C697.379 52.2383 698.28 51.8672 698.959 51.125C699.638 50.3779 699.977 49.3696 699.977 48.1001V47.1626C699.977 45.937 699.643 44.9556 698.974 44.2183C698.305 43.481 697.423 43.1099 696.33 43.105H694.235ZM709.052 47.8877H704.064V52.2383H709.799V53H703.163V42.3359H709.762V43.105H704.064V47.126H709.052V47.8877ZM715.688 48.5615H712.589V53H711.681V42.3359H715.146C716.283 42.3359 717.172 42.6118 717.812 43.1636C718.451 43.7153 718.771 44.4868 718.771 45.478C718.771 46.1616 718.571 46.7646 718.17 47.2871C717.77 47.8096 717.233 48.1709 716.559 48.3711L719.225 52.9048V53H718.266L715.688 48.5615ZM712.589 47.7925H715.351C716.107 47.7925 716.715 47.5776 717.174 47.1479C717.633 46.7183 717.863 46.1616 717.863 45.478C717.863 44.7261 717.624 44.1426 717.145 43.7275C716.667 43.3125 715.995 43.105 715.131 43.105H712.589V47.7925ZM727.26 50.3779C727.26 49.7871 727.052 49.3208 726.637 48.979C726.222 48.6323 725.463 48.3052 724.359 47.9976C723.256 47.6851 722.45 47.3457 721.942 46.9795C721.22 46.4619 720.858 45.7832 720.858 44.9434C720.858 44.1279 721.193 43.4663 721.862 42.9585C722.536 42.4458 723.395 42.1895 724.44 42.1895C725.148 42.1895 725.78 42.3262 726.337 42.5996C726.898 42.873 727.333 43.2539 727.641 43.7422C727.948 44.2305 728.102 44.7749 728.102 45.3755H727.194C727.194 44.6479 726.945 44.0645 726.447 43.625C725.949 43.1807 725.28 42.9585 724.44 42.9585C723.625 42.9585 722.975 43.1416 722.492 43.5078C722.008 43.8691 721.767 44.3428 721.767 44.9287C721.767 45.4707 721.984 45.9126 722.418 46.2544C722.853 46.5962 723.549 46.8989 724.506 47.1626C725.463 47.4214 726.188 47.6924 726.681 47.9756C727.174 48.2539 727.545 48.5884 727.794 48.979C728.043 49.3696 728.168 49.8311 728.168 50.3633C728.168 51.2031 727.831 51.877 727.157 52.3848C726.488 52.8926 725.604 53.1465 724.506 53.1465C723.754 53.1465 723.063 53.0122 722.433 52.7437C721.808 52.4751 721.332 52.0991 721.005 51.6157C720.683 51.1323 720.521 50.5781 720.521 49.9531H721.422C721.422 50.7051 721.703 51.2983 722.265 51.7329C722.826 52.1675 723.573 52.3848 724.506 52.3848C725.336 52.3848 726.002 52.2017 726.505 51.8354C727.008 51.4692 727.26 50.9834 727.26 50.3779ZM737.997 48.2466C737.997 49.228 737.826 50.0898 737.484 50.832C737.147 51.5742 736.664 52.1455 736.034 52.5459C735.404 52.9463 734.677 53.1465 733.852 53.1465C732.606 53.1465 731.601 52.7021 730.834 51.8135C730.067 50.9199 729.684 49.7163 729.684 48.2026V47.104C729.684 46.1323 729.855 45.2729 730.197 44.5259C730.543 43.7739 731.032 43.1978 731.662 42.7974C732.292 42.3921 733.017 42.1895 733.837 42.1895C734.657 42.1895 735.38 42.3872 736.005 42.7827C736.635 43.1782 737.121 43.7373 737.462 44.46C737.804 45.1826 737.982 46.02 737.997 46.9722V48.2466ZM737.096 47.0894C737.096 45.8052 736.806 44.7993 736.225 44.0718C735.644 43.3442 734.848 42.9805 733.837 42.9805C732.846 42.9805 732.055 43.3467 731.464 44.0791C730.878 44.8066 730.585 45.8247 730.585 47.1333V48.2466C730.585 49.5112 730.878 50.5146 731.464 51.2568C732.05 51.9941 732.846 52.3628 733.852 52.3628C734.872 52.3628 735.668 51.999 736.239 51.2715C736.811 50.5391 737.096 49.521 737.096 48.2173V47.0894ZM748.207 53H747.306L741.176 43.874V53H740.268V42.3359H741.176L747.313 51.4692V42.3359H748.207V53ZM753.437 48.6641H749.928V47.9243H753.437V48.6641ZM760.966 50.0117H756.125L755.026 53H754.081L758.117 42.3359H758.974L763.009 53H762.072L760.966 50.0117ZM756.403 49.2427H760.68L758.542 43.4346L756.403 49.2427ZM772.523 53H771.623L765.492 43.874V53H764.584V42.3359H765.492L771.63 51.4692V42.3359H772.523V53ZM775.233 53V42.3359H778.214C779.088 42.3359 779.872 42.5361 780.565 42.9365C781.259 43.332 781.798 43.9009 782.184 44.6431C782.575 45.3853 782.77 46.23 782.77 47.1772V48.1587C782.77 49.1108 782.577 49.9556 782.191 50.6929C781.806 51.4302 781.261 51.999 780.558 52.3994C779.86 52.7998 779.057 53 778.148 53H775.233ZM776.134 43.105V52.2383H778.156C779.279 52.2383 780.18 51.8672 780.858 51.125C781.537 50.3779 781.876 49.3696 781.876 48.1001V47.1626C781.876 45.937 781.542 44.9556 780.873 44.2183C780.204 43.481 779.323 43.1099 778.229 43.105H776.134ZM789.047 48.5615H785.949V53H785.041V42.3359H788.505C789.643 42.3359 790.531 42.6118 791.171 43.1636C791.811 43.7153 792.13 44.4868 792.13 45.478C792.13 46.1616 791.93 46.7646 791.53 47.2871C791.129 47.8096 790.592 48.1709 789.918 48.3711L792.584 52.9048V53H791.625L789.047 48.5615ZM785.949 47.7925H788.71C789.467 47.7925 790.075 47.5776 790.534 47.1479C790.993 46.7183 791.222 46.1616 791.222 45.478C791.222 44.7261 790.983 44.1426 790.504 43.7275C790.026 43.3125 789.354 43.105 788.49 43.105H785.949V47.7925ZM800.473 47.8877H795.485V52.2383H801.22V53H794.584V42.3359H801.183V43.105H795.485V47.126H800.473V47.8877ZM805.644 48.6641H802.135V47.9243H805.644V48.6641ZM808.317 48.6567V53H807.416V42.3359H811.049C812.157 42.3359 813.031 42.6191 813.671 43.1855C814.315 43.752 814.638 44.5308 814.638 45.522C814.638 46.5229 814.328 47.2969 813.708 47.8438C813.092 48.3857 812.199 48.6567 811.027 48.6567H808.317ZM808.317 47.895H811.049C811.923 47.895 812.589 47.6875 813.048 47.2725C813.507 46.8574 813.737 46.2788 813.737 45.5366C813.737 44.7993 813.507 44.2134 813.048 43.7788C812.594 43.3394 811.947 43.1147 811.107 43.105H808.317V47.895Z" fill="#FFFFFE"/>
<ellipse cx="627" cy="36.4583" rx="26.25" ry="27.7083" fill="#4338CA"/>
<path d="M627 6.55273C620.074 6.55302 613.374 9.00417 608.1 13.4676C602.825 17.9311 599.319 24.1155 598.21 30.9144C597.1 37.7133 598.46 44.6829 602.044 50.5763C605.629 56.4696 611.206 60.9021 617.776 63.0805C619.234 63.3344 619.781 62.4642 619.781 61.7027C619.781 61.0138 619.745 58.7294 619.745 56.3001C612.416 57.6417 610.521 54.5235 609.937 52.8919C609.29 51.3049 608.264 49.8987 606.948 48.7945C605.927 48.2506 604.469 46.909 606.911 46.8728C607.844 46.9735 608.738 47.2963 609.519 47.8138C610.3 48.3314 610.943 49.0285 611.396 49.846C611.795 50.5587 612.331 51.1861 612.974 51.6923C613.617 52.1985 614.354 52.5735 615.144 52.7958C615.933 53.0181 616.758 53.0833 617.573 52.9878C618.387 52.8923 619.175 52.6378 619.89 52.2391C620.017 50.7644 620.677 49.3856 621.75 48.3595C615.26 47.6343 608.479 45.1323 608.479 34.0372C608.438 31.1543 609.508 28.365 611.469 26.2415C610.577 23.7359 610.681 20.9862 611.76 18.5546C611.76 18.5546 614.203 17.7931 619.781 21.5278C624.554 20.2224 629.592 20.2224 634.364 21.5278C639.942 17.7569 642.385 18.5546 642.385 18.5546C643.464 20.9862 643.569 23.7359 642.677 26.2415C644.644 28.3614 645.714 31.1531 645.666 34.0372C645.666 45.1686 638.849 47.6343 632.359 48.3595C633.055 49.0611 633.591 49.9035 633.931 50.8295C634.271 51.7554 634.406 52.7432 634.328 53.7258C634.328 57.6056 634.291 60.7238 634.291 61.7028C634.291 62.4643 634.838 63.3707 636.297 63.0806C642.855 60.8844 648.416 56.4416 651.985 50.5452C655.555 44.6489 656.901 37.6828 655.784 30.8905C654.667 24.0982 651.159 17.9217 645.887 13.4637C640.614 9.00573 633.92 6.55632 627 6.55273Z" fill="#16161A"/>
<path d="M884.5 382H835.5L793 424V468" stroke="url(#paint6_linear_5_283)" stroke-width="3" stroke-linecap="square"/>
<path d="M901 382C901 386.418 897.418 390 893 390C888.582 390 885 386.418 885 382C885 377.582 888.582 374 893 374C897.418 374 901 377.582 901 382ZM888.2 382C888.2 384.651 890.349 386.8 893 386.8C895.651 386.8 897.8 384.651 897.8 382C897.8 379.349 895.651 377.2 893 377.2C890.349 377.2 888.2 379.349 888.2 382Z" fill="#4338CA"/>
<circle cx="893" cy="382" r="5" fill="#16161A"/>
<path d="M981.053 377H978.592V362.781H981.053V377ZM997.369 377H994.898L988.561 366.912V377H986.09V362.781H988.561L994.918 372.908V362.781H997.369V377ZM1009.72 373.338C1009.72 372.713 1009.5 372.231 1009.06 371.893C1008.62 371.554 1007.83 371.212 1006.68 370.867C1005.54 370.522 1004.63 370.138 1003.95 369.715C1002.65 368.901 1002.01 367.84 1002.01 366.531C1002.01 365.385 1002.47 364.441 1003.4 363.699C1004.34 362.957 1005.55 362.586 1007.04 362.586C1008.03 362.586 1008.92 362.768 1009.69 363.133C1010.47 363.497 1011.07 364.018 1011.52 364.695C1011.96 365.366 1012.18 366.111 1012.18 366.932H1009.72C1009.72 366.189 1009.49 365.61 1009.02 365.193C1008.56 364.77 1007.89 364.559 1007.03 364.559C1006.22 364.559 1005.59 364.731 1005.14 365.076C1004.7 365.421 1004.48 365.903 1004.48 366.521C1004.48 367.042 1004.72 367.479 1005.2 367.83C1005.68 368.175 1006.48 368.514 1007.58 368.846C1008.69 369.171 1009.58 369.546 1010.25 369.969C1010.92 370.385 1011.41 370.867 1011.72 371.414C1012.04 371.954 1012.19 372.589 1012.19 373.318C1012.19 374.503 1011.74 375.447 1010.82 376.15C1009.92 376.847 1008.69 377.195 1007.13 377.195C1006.1 377.195 1005.16 377.007 1004.29 376.629C1003.43 376.245 1002.76 375.717 1002.28 375.047C1001.8 374.376 1001.57 373.595 1001.57 372.703H1004.04C1004.04 373.51 1004.3 374.135 1004.84 374.578C1005.37 375.021 1006.14 375.242 1007.13 375.242C1007.99 375.242 1008.64 375.07 1009.07 374.725C1009.5 374.373 1009.72 373.911 1009.72 373.338ZM1026.63 364.773H1022.2V377H1019.75V364.773H1015.35V362.781H1026.63V364.773ZM1037.29 373.689H1031.79L1030.63 377H1028.07L1033.44 362.781H1035.65L1041.04 377H1038.46L1037.29 373.689ZM1032.48 371.697H1036.6L1034.54 365.799L1032.48 371.697ZM1055.34 375.154C1054.83 375.825 1054.11 376.333 1053.2 376.678C1052.29 377.023 1051.25 377.195 1050.1 377.195C1048.9 377.195 1047.85 376.925 1046.93 376.385C1046.01 375.844 1045.3 375.073 1044.8 374.07C1044.31 373.061 1044.05 371.886 1044.03 370.545V369.432C1044.03 367.283 1044.55 365.607 1045.57 364.402C1046.6 363.191 1048.04 362.586 1049.88 362.586C1051.46 362.586 1052.72 362.977 1053.65 363.758C1054.58 364.539 1055.14 365.665 1055.33 367.137H1052.91C1052.63 365.424 1051.64 364.568 1049.93 364.568C1048.82 364.568 1047.98 364.969 1047.4 365.77C1046.83 366.564 1046.53 367.732 1046.51 369.275V370.369C1046.51 371.906 1046.83 373.1 1047.48 373.953C1048.13 374.799 1049.03 375.223 1050.18 375.223C1051.45 375.223 1052.35 374.936 1052.88 374.363V371.58H1049.95V369.705H1055.34V375.154ZM1065.28 371.521H1062.53V377H1060.05V362.781H1065.05C1066.7 362.781 1067.96 363.149 1068.85 363.885C1069.75 364.62 1070.19 365.685 1070.19 367.078C1070.19 368.029 1069.96 368.826 1069.5 369.471C1069.04 370.109 1068.4 370.6 1067.58 370.945L1070.78 376.873V377H1068.13L1065.28 371.521ZM1062.53 369.539H1065.06C1065.9 369.539 1066.55 369.331 1067.02 368.914C1067.49 368.491 1067.72 367.915 1067.72 367.186C1067.72 366.424 1067.5 365.835 1067.07 365.418C1066.64 365.001 1065.99 364.786 1065.13 364.773H1062.53V369.539ZM1082.49 373.689H1076.99L1075.83 377H1073.27L1078.64 362.781H1080.85L1086.23 377H1083.66L1082.49 373.689ZM1077.68 371.697H1081.8L1079.74 365.799L1077.68 371.697ZM1093.06 362.781L1097.16 373.68L1101.25 362.781H1104.45V377H1101.98V372.312L1102.23 366.043L1098.03 377H1096.26L1092.07 366.053L1092.32 372.312V377H1089.86V362.781H1093.06Z" fill="#4338CA"/>
<path d="M989.847 396.243C989.822 396.96 989.69 397.627 989.451 398.242C989.212 398.853 988.88 399.324 988.455 399.656C988.035 399.983 987.547 400.146 986.99 400.146C986.517 400.146 986.131 400.022 985.833 399.773C985.535 399.524 985.337 399.175 985.24 398.726C984.712 399.673 983.985 400.146 983.057 400.146C982.374 400.146 981.863 399.851 981.526 399.26C981.189 398.669 981.065 397.874 981.153 396.873C981.226 396.077 981.407 395.369 981.695 394.749C981.988 394.124 982.366 393.638 982.83 393.291C983.299 392.939 983.799 392.764 984.332 392.764C984.708 392.764 985.037 392.817 985.32 392.925C985.604 393.027 985.933 393.237 986.309 393.555L985.936 397.729C985.887 398.296 985.958 398.735 986.148 399.048C986.343 399.36 986.653 399.517 987.078 399.517C987.679 399.517 988.165 399.224 988.536 398.638C988.912 398.047 989.122 397.249 989.166 396.243C989.258 394.265 988.882 392.778 988.038 391.782C987.193 390.781 985.914 390.281 984.2 390.281C983.169 390.281 982.239 390.54 981.409 391.057C980.584 391.57 979.932 392.297 979.454 393.24C978.975 394.182 978.707 395.269 978.648 396.499C978.589 397.729 978.75 398.813 979.131 399.751C979.517 400.684 980.096 401.401 980.867 401.904C981.644 402.407 982.566 402.659 983.636 402.659C984.085 402.659 984.527 402.605 984.961 402.498C985.396 402.39 985.76 402.251 986.053 402.08L986.28 402.666C986.001 402.852 985.613 403.005 985.115 403.127C984.617 403.254 984.114 403.318 983.606 403.318C982.386 403.318 981.336 403.042 980.457 402.49C979.578 401.943 978.919 401.152 978.479 400.117C978.045 399.087 977.857 397.881 977.916 396.499C977.974 395.142 978.272 393.94 978.809 392.896C979.351 391.846 980.091 391.035 981.028 390.464C981.966 389.888 983.033 389.6 984.229 389.6C985.474 389.6 986.529 389.861 987.393 390.383C988.257 390.901 988.897 391.66 989.312 392.661C989.727 393.662 989.905 394.856 989.847 396.243ZM981.929 397.905C981.983 398.394 982.12 398.772 982.339 399.041C982.559 399.304 982.85 399.436 983.211 399.436C984.114 399.436 984.781 398.813 985.21 397.568L985.54 393.789C985.213 393.55 984.827 393.43 984.383 393.43C983.841 393.43 983.37 393.647 982.969 394.082C982.574 394.512 982.283 395.107 982.098 395.869C981.912 396.626 981.856 397.305 981.929 397.905ZM997.801 397.012H992.959L991.861 400H990.916L994.952 389.336H995.809L999.844 400H998.907L997.801 397.012ZM993.238 396.243H997.515L995.376 390.435L993.238 396.243ZM1009.36 400H1008.46L1002.33 390.874V400H1001.42V389.336H1002.33L1008.46 398.469V389.336H1009.36V400ZM1012.07 400V389.336H1015.05C1015.92 389.336 1016.71 389.536 1017.4 389.937C1018.09 390.332 1018.63 390.901 1019.02 391.643C1019.41 392.385 1019.6 393.23 1019.6 394.177V395.159C1019.6 396.111 1019.41 396.956 1019.03 397.693C1018.64 398.43 1018.1 398.999 1017.39 399.399C1016.69 399.8 1015.89 400 1014.98 400H1012.07ZM1012.97 390.105V399.238H1014.99C1016.11 399.238 1017.01 398.867 1017.69 398.125C1018.37 397.378 1018.71 396.37 1018.71 395.1V394.163C1018.71 392.937 1018.38 391.956 1017.71 391.218C1017.04 390.481 1016.16 390.11 1015.06 390.105H1012.97ZM1023.5 394.192H1024.41C1024.91 394.192 1025.35 394.104 1025.73 393.928C1026.1 393.748 1026.39 393.503 1026.58 393.196C1026.79 392.883 1026.89 392.524 1026.89 392.119C1026.89 391.436 1026.69 390.901 1026.31 390.515C1025.92 390.129 1025.37 389.937 1024.64 389.937C1023.96 389.937 1023.4 390.139 1022.96 390.544C1022.52 390.945 1022.31 391.475 1022.31 392.134H1021.43C1021.43 391.582 1021.57 391.079 1021.85 390.625C1022.12 390.166 1022.51 389.812 1023 389.563C1023.5 389.314 1024.04 389.189 1024.64 389.189C1025.61 389.189 1026.37 389.453 1026.93 389.98C1027.49 390.508 1027.76 391.23 1027.76 392.148C1027.76 392.661 1027.6 393.135 1027.27 393.569C1026.95 393.999 1026.51 394.321 1025.94 394.536C1026.6 394.722 1027.11 395.042 1027.45 395.496C1027.79 395.945 1027.96 396.482 1027.96 397.107C1027.96 398.02 1027.66 398.755 1027.07 399.312C1026.47 399.868 1025.68 400.146 1024.68 400.146C1024.05 400.146 1023.46 400.02 1022.93 399.766C1022.4 399.512 1021.99 399.158 1021.7 398.704C1021.41 398.245 1021.27 397.712 1021.27 397.107H1022.15C1022.15 397.786 1022.38 398.34 1022.86 398.77C1023.33 399.194 1023.94 399.407 1024.68 399.407C1025.44 399.407 1026.03 399.214 1026.45 398.828C1026.87 398.438 1027.08 397.874 1027.08 397.136C1027.08 396.423 1026.85 395.879 1026.39 395.503C1025.94 395.127 1025.27 394.939 1024.38 394.939H1023.5V394.192ZM1034.2 395.562H1031.1V400H1030.2V389.336H1033.66C1034.8 389.336 1035.69 389.612 1036.33 390.164C1036.97 390.715 1037.29 391.487 1037.29 392.478C1037.29 393.162 1037.09 393.765 1036.69 394.287C1036.28 394.81 1035.75 395.171 1035.07 395.371L1037.74 399.905V400H1036.78L1034.2 395.562ZM1031.1 394.792H1033.87C1034.62 394.792 1035.23 394.578 1035.69 394.148C1036.15 393.718 1036.38 393.162 1036.38 392.478C1036.38 391.726 1036.14 391.143 1035.66 390.728C1035.18 390.312 1034.51 390.105 1033.65 390.105H1031.1V394.792ZM1045.77 397.378C1045.77 396.787 1045.57 396.321 1045.15 395.979C1044.74 395.632 1043.98 395.305 1042.87 394.998C1041.77 394.685 1040.96 394.346 1040.46 393.979C1039.73 393.462 1039.37 392.783 1039.37 391.943C1039.37 391.128 1039.71 390.466 1040.38 389.958C1041.05 389.446 1041.91 389.189 1042.95 389.189C1043.66 389.189 1044.29 389.326 1044.85 389.6C1045.41 389.873 1045.85 390.254 1046.16 390.742C1046.46 391.23 1046.62 391.775 1046.62 392.375H1045.71C1045.71 391.648 1045.46 391.064 1044.96 390.625C1044.46 390.181 1043.79 389.958 1042.95 389.958C1042.14 389.958 1041.49 390.142 1041.01 390.508C1040.52 390.869 1040.28 391.343 1040.28 391.929C1040.28 392.471 1040.5 392.913 1040.93 393.254C1041.37 393.596 1042.06 393.899 1043.02 394.163C1043.98 394.421 1044.7 394.692 1045.2 394.976C1045.69 395.254 1046.06 395.588 1046.31 395.979C1046.56 396.37 1046.68 396.831 1046.68 397.363C1046.68 398.203 1046.35 398.877 1045.67 399.385C1045 399.893 1044.12 400.146 1043.02 400.146C1042.27 400.146 1041.58 400.012 1040.95 399.744C1040.32 399.475 1039.85 399.099 1039.52 398.616C1039.2 398.132 1039.04 397.578 1039.04 396.953H1039.94C1039.94 397.705 1040.22 398.298 1040.78 398.733C1041.34 399.167 1042.09 399.385 1043.02 399.385C1043.85 399.385 1044.52 399.202 1045.02 398.835C1045.52 398.469 1045.77 397.983 1045.77 397.378ZM1056.51 395.247C1056.51 396.228 1056.34 397.09 1056 397.832C1055.66 398.574 1055.18 399.146 1054.55 399.546C1053.92 399.946 1053.19 400.146 1052.37 400.146C1051.12 400.146 1050.12 399.702 1049.35 398.813C1048.58 397.92 1048.2 396.716 1048.2 395.203V394.104C1048.2 393.132 1048.37 392.273 1048.71 391.526C1049.06 390.774 1049.55 390.198 1050.18 389.797C1050.81 389.392 1051.53 389.189 1052.35 389.189C1053.17 389.189 1053.89 389.387 1054.52 389.783C1055.15 390.178 1055.64 390.737 1055.98 391.46C1056.32 392.183 1056.5 393.02 1056.51 393.972V395.247ZM1055.61 394.089C1055.61 392.805 1055.32 391.799 1054.74 391.072C1054.16 390.344 1053.36 389.98 1052.35 389.98C1051.36 389.98 1050.57 390.347 1049.98 391.079C1049.39 391.807 1049.1 392.825 1049.1 394.133V395.247C1049.1 396.511 1049.39 397.515 1049.98 398.257C1050.56 398.994 1051.36 399.363 1052.37 399.363C1053.39 399.363 1054.18 398.999 1054.75 398.271C1055.33 397.539 1055.61 396.521 1055.61 395.217V394.089ZM1066.72 400H1065.82L1059.69 390.874V400H1058.78V389.336H1059.69L1065.83 398.469V389.336H1066.72V400ZM1075.32 397.012H1070.48L1069.38 400H1068.44L1072.47 389.336H1073.33L1077.36 400H1076.43L1075.32 397.012ZM1070.76 396.243H1075.03L1072.9 390.435L1070.76 396.243ZM1086.88 400H1085.98L1079.85 390.874V400H1078.94V389.336H1079.85L1085.98 398.469V389.336H1086.88V400ZM1089.59 400V389.336H1092.57C1093.44 389.336 1094.23 389.536 1094.92 389.937C1095.61 390.332 1096.15 390.901 1096.54 391.643C1096.93 392.385 1097.12 393.23 1097.12 394.177V395.159C1097.12 396.111 1096.93 396.956 1096.55 397.693C1096.16 398.43 1095.62 398.999 1094.91 399.399C1094.21 399.8 1093.41 400 1092.5 400H1089.59ZM1090.49 390.105V399.238H1092.51C1093.63 399.238 1094.53 398.867 1095.21 398.125C1095.89 397.378 1096.23 396.37 1096.23 395.1V394.163C1096.23 392.937 1095.9 391.956 1095.23 391.218C1094.56 390.481 1093.68 390.11 1092.58 390.105H1090.49ZM1103.4 395.562H1100.3V400H1099.4V389.336H1102.86C1104 389.336 1104.89 389.612 1105.53 390.164C1106.17 390.715 1106.48 391.487 1106.48 392.478C1106.48 393.162 1106.28 393.765 1105.88 394.287C1105.48 394.81 1104.95 395.171 1104.27 395.371L1106.94 399.905V400H1105.98L1103.4 395.562ZM1100.3 394.792H1103.06C1103.82 394.792 1104.43 394.578 1104.89 394.148C1105.35 393.718 1105.58 393.162 1105.58 392.478C1105.58 391.726 1105.34 391.143 1104.86 390.728C1104.38 390.312 1103.71 390.105 1102.84 390.105H1100.3V394.792ZM1114.83 394.888H1109.84V399.238H1115.57V400H1108.94V389.336H1115.54V390.105H1109.84V394.126H1114.83V394.888Z" fill="#FFFFFE"/>
<path d="M954.575 362.925C953.882 362.925 953.206 363.13 952.63 363.515C952.055 363.9 951.606 364.446 951.341 365.086C951.076 365.725 951.007 366.429 951.142 367.108C951.277 367.787 951.61 368.411 952.1 368.9C952.589 369.39 953.213 369.723 953.892 369.858C954.571 369.993 955.275 369.924 955.914 369.659C956.554 369.394 957.1 368.945 957.485 368.37C957.869 367.794 958.075 367.117 958.075 366.425C958.075 365.497 957.706 364.607 957.05 363.95C956.393 363.294 955.503 362.925 954.575 362.925ZM967.991 369.983C967.935 367.564 967.481 365.169 966.65 362.896C965.908 360.951 964.754 359.19 963.266 357.733C961.822 356.238 960.057 355.092 958.104 354.379C955.837 353.522 953.44 353.059 951.016 353.008C947.925 352.833 946.933 352.833 939 352.833C931.066 352.833 930.075 352.833 926.983 353.008C924.56 353.059 922.163 353.522 919.896 354.379C917.946 355.099 916.182 356.245 914.733 357.733C913.238 359.178 912.091 360.943 911.379 362.896C910.522 365.163 910.058 367.56 910.008 369.983C909.833 373.075 909.833 374.067 909.833 382C909.833 389.933 909.833 390.925 910.008 394.017C910.058 396.44 910.522 398.837 911.379 401.104C912.091 403.057 913.238 404.823 914.733 406.267C916.182 407.756 917.946 408.902 919.896 409.621C922.163 410.478 924.56 410.942 926.983 410.992C930.075 411.167 931.066 411.167 939 411.167C946.933 411.167 947.925 411.167 951.016 410.992C953.44 410.942 955.837 410.478 958.104 409.621C960.057 408.909 961.822 407.762 963.266 406.267C964.76 404.816 965.916 403.053 966.65 401.104C967.481 398.831 967.935 396.437 967.991 394.017C967.991 390.925 968.166 389.933 968.166 382C968.166 374.067 968.166 373.075 967.991 369.983ZM962.741 393.667C962.72 395.518 962.385 397.353 961.75 399.092C961.284 400.361 960.536 401.508 959.562 402.446C958.616 403.41 957.472 404.156 956.208 404.634C954.469 405.269 952.634 405.604 950.783 405.625C947.866 405.771 946.787 405.8 939.116 405.8C931.446 405.8 930.366 405.8 927.45 405.625C925.527 405.661 923.613 405.365 921.791 404.75C920.583 404.249 919.491 403.504 918.583 402.563C917.615 401.626 916.876 400.478 916.425 399.208C915.713 397.444 915.318 395.568 915.258 393.667C915.258 390.75 915.083 389.671 915.083 382C915.083 374.329 915.083 373.25 915.258 370.333C915.271 368.441 915.617 366.565 916.279 364.792C916.792 363.561 917.58 362.463 918.583 361.583C919.469 360.581 920.564 359.784 921.791 359.25C923.569 358.609 925.443 358.273 927.333 358.258C930.25 358.258 931.329 358.083 939 358.083C946.671 358.083 947.75 358.083 950.666 358.258C952.518 358.28 954.352 358.615 956.091 359.25C957.417 359.742 958.606 360.542 959.562 361.583C960.518 362.479 961.265 363.575 961.75 364.792C962.398 366.568 962.733 368.443 962.741 370.333C962.887 373.25 962.916 374.329 962.916 382C962.916 389.671 962.887 390.75 962.741 393.667ZM939 367.038C936.042 367.043 933.152 367.926 930.695 369.573C928.238 371.221 926.325 373.56 925.197 376.294C924.069 379.029 923.777 382.037 924.357 384.937C924.938 387.838 926.365 390.501 928.459 392.591C930.553 394.68 933.219 396.102 936.121 396.677C939.022 397.252 942.029 396.954 944.761 395.821C947.494 394.688 949.829 392.77 951.472 390.31C953.115 387.85 953.991 384.958 953.991 382C953.995 380.032 953.61 378.082 952.857 376.263C952.105 374.444 951 372.792 949.607 371.401C948.214 370.011 946.56 368.909 944.739 368.16C942.919 367.412 940.968 367.03 939 367.038ZM939 391.713C937.079 391.713 935.201 391.143 933.604 390.076C932.006 389.009 930.762 387.492 930.026 385.717C929.291 383.942 929.099 381.989 929.474 380.105C929.849 378.221 930.774 376.491 932.132 375.132C933.49 373.774 935.221 372.849 937.105 372.474C938.989 372.1 940.942 372.292 942.716 373.027C944.491 373.762 946.008 375.007 947.075 376.604C948.143 378.201 948.712 380.079 948.712 382C948.712 383.276 948.461 384.539 947.973 385.717C947.485 386.895 946.769 387.966 945.867 388.868C944.966 389.77 943.895 390.485 942.716 390.973C941.538 391.461 940.275 391.713 939 391.713Z" fill="#16161A"/>
<path fill-rule="evenodd" clip-rule="evenodd" d="M962.741 393.667C962.72 395.518 962.385 397.353 961.75 399.092C961.284 400.361 960.536 401.508 959.562 402.446C958.616 403.41 957.472 404.156 956.208 404.634C954.469 405.269 952.634 405.604 950.783 405.625C947.866 405.771 946.787 405.8 939.116 405.8C931.446 405.8 930.366 405.8 927.45 405.625C925.527 405.661 923.613 405.365 921.791 404.75C920.583 404.249 919.491 403.504 918.583 402.563C917.615 401.626 916.876 400.478 916.425 399.208C915.713 397.444 915.318 395.568 915.258 393.667C915.258 390.75 915.083 389.671 915.083 382C915.083 374.329 915.083 373.25 915.258 370.333C915.271 368.441 915.617 366.565 916.279 364.792C916.792 363.561 917.58 362.463 918.583 361.583C919.469 360.581 920.564 359.784 921.791 359.25C923.569 358.609 925.443 358.273 927.333 358.258C930.25 358.258 931.329 358.083 939 358.083C946.671 358.083 947.75 358.083 950.666 358.258C952.518 358.28 954.352 358.615 956.091 359.25C957.417 359.742 958.606 360.542 959.562 361.583C960.518 362.479 961.265 363.575 961.75 364.792C962.398 366.568 962.733 368.443 962.741 370.333C962.887 373.25 962.916 374.329 962.916 382C962.916 389.671 962.887 390.75 962.741 393.667ZM952.63 363.515C953.206 363.13 953.882 362.925 954.575 362.925C955.503 362.925 956.393 363.294 957.05 363.95C957.706 364.607 958.075 365.497 958.075 366.425C958.075 367.117 957.869 367.794 957.485 368.37C957.1 368.945 956.554 369.394 955.914 369.659C955.275 369.924 954.571 369.993 953.892 369.858C953.213 369.723 952.589 369.39 952.1 368.9C951.61 368.411 951.277 367.787 951.142 367.108C951.007 366.429 951.076 365.725 951.341 365.086C951.606 364.446 952.055 363.9 952.63 363.515ZM930.695 369.573C933.152 367.926 936.042 367.043 939 367.038C940.968 367.03 942.919 367.412 944.739 368.16C946.56 368.909 948.214 370.011 949.607 371.401C951 372.792 952.105 374.444 952.857 376.263C953.61 378.082 953.995 380.032 953.991 382C953.991 384.958 953.115 387.85 951.472 390.31C949.829 392.77 947.494 394.688 944.761 395.821C942.029 396.954 939.022 397.252 936.121 396.677C933.219 396.102 930.553 394.68 928.459 392.591C926.365 390.501 924.938 387.838 924.357 384.937C923.777 382.037 924.069 379.029 925.197 376.294C926.325 373.56 928.238 371.221 930.695 369.573Z" fill="#16161A"/>
<path d="M939 391.713C937.079 391.713 935.201 391.143 933.604 390.076C932.006 389.009 930.762 387.492 930.026 385.717C929.291 383.942 929.099 381.989 929.474 380.105C929.849 378.221 930.774 376.491 932.132 375.132C933.49 373.774 935.221 372.849 937.105 372.474C938.989 372.1 940.942 372.292 942.716 373.027C944.491 373.762 946.008 375.007 947.075 376.604C948.143 378.201 948.712 380.079 948.712 382C948.712 383.276 948.461 384.539 947.973 385.717C947.485 386.895 946.769 387.966 945.867 388.868C944.966 389.77 943.895 390.485 942.716 390.973C941.538 391.461 940.275 391.713 939 391.713Z" fill="#16161A"/>
<path fill-rule="evenodd" clip-rule="evenodd" d="M952.63 363.515C953.206 363.13 953.882 362.925 954.575 362.925C955.503 362.925 956.393 363.294 957.05 363.95C957.706 364.607 958.075 365.497 958.075 366.425C958.075 367.117 957.869 367.794 957.485 368.37C957.1 368.945 956.554 369.394 955.914 369.659C955.275 369.924 954.571 369.993 953.892 369.858C953.213 369.723 952.589 369.39 952.1 368.9C951.61 368.411 951.277 367.787 951.142 367.108C951.007 366.429 951.076 365.725 951.341 365.086C951.606 364.446 952.055 363.9 952.63 363.515ZM930.695 369.573C933.152 367.926 936.042 367.043 939 367.038C940.968 367.03 942.919 367.412 944.739 368.16C946.56 368.909 948.214 370.011 949.607 371.401C951 372.792 952.105 374.444 952.857 376.263C953.61 378.082 953.995 380.032 953.991 382C953.991 384.958 953.115 387.85 951.472 390.31C949.829 392.77 947.494 394.688 944.761 395.821C942.029 396.954 939.022 397.252 936.121 396.677C933.219 396.102 930.553 394.68 928.459 392.591C926.365 390.501 924.938 387.838 924.357 384.937C923.777 382.037 924.069 379.029 925.197 376.294C926.325 373.56 928.238 371.221 930.695 369.573ZM933.604 390.076C935.201 391.143 937.079 391.713 939 391.713C940.275 391.713 941.538 391.461 942.716 390.973C943.895 390.485 944.966 389.77 945.867 388.868C946.769 387.966 947.485 386.895 947.973 385.717C948.461 384.539 948.712 383.276 948.712 382C948.712 380.079 948.143 378.201 947.075 376.604C946.008 375.007 944.491 373.762 942.716 373.027C940.942 372.292 938.989 372.1 937.105 372.474C935.221 372.849 933.49 373.774 932.132 375.132C930.774 376.491 929.849 378.221 929.474 380.105C929.099 381.989 929.291 383.942 930.026 385.717C930.762 387.492 932.006 389.009 933.604 390.076Z" fill="#4338CA"/>
<path d="M344 444C344.4 444.4 361.833 461.5 370.5 470L474.5 470.5L495 491" stroke="url(#paint7_linear_5_283)" stroke-width="3"/>
<path d="M348 440C348 444.418 344.418 448 340 448C335.582 448 332 444.418 332 440C332 435.582 335.582 432 340 432C344.418 432 348 435.582 348 440ZM335.2 440C335.2 442.651 337.349 444.8 340 444.8C342.651 444.8 344.8 442.651 344.8 440C344.8 437.349 342.651 435.2 340 435.2C337.349 435.2 335.2 437.349 335.2 440Z" fill="#4338CA"/>
<circle cx="340" cy="440" r="5" fill="#16161A"/>
<path d="M117.445 412V397.781H121.645C122.901 397.781 124.014 398.061 124.984 398.621C125.961 399.181 126.716 399.975 127.25 401.004C127.784 402.033 128.051 403.211 128.051 404.539V405.252C128.051 406.6 127.781 407.785 127.24 408.807C126.706 409.829 125.941 410.617 124.945 411.17C123.956 411.723 122.82 412 121.537 412H117.445ZM119.916 399.773V410.027H121.527C122.823 410.027 123.816 409.624 124.506 408.816C125.202 408.003 125.557 406.837 125.57 405.32V404.529C125.57 402.986 125.235 401.808 124.564 400.994C123.894 400.18 122.921 399.773 121.645 399.773H119.916ZM137.736 406.521H134.982V412H132.512V397.781H137.512C139.152 397.781 140.419 398.149 141.311 398.885C142.202 399.62 142.648 400.685 142.648 402.078C142.648 403.029 142.417 403.826 141.955 404.471C141.499 405.109 140.861 405.6 140.041 405.945L143.234 411.873V412H140.588L137.736 406.521ZM134.982 404.539H137.521C138.355 404.539 139.006 404.331 139.475 403.914C139.943 403.491 140.178 402.915 140.178 402.186C140.178 401.424 139.96 400.835 139.523 400.418C139.094 400.001 138.449 399.786 137.59 399.773H134.982V404.539ZM149.6 412H147.139V397.781H149.6V412ZM154.637 412V397.781H159.51C161.118 397.781 162.342 398.104 163.182 398.748C164.021 399.393 164.441 400.353 164.441 401.629C164.441 402.28 164.266 402.866 163.914 403.387C163.562 403.908 163.048 404.311 162.371 404.598C163.139 404.806 163.732 405.2 164.148 405.779C164.572 406.352 164.783 407.042 164.783 407.85C164.783 409.184 164.354 410.21 163.494 410.926C162.641 411.642 161.417 412 159.822 412H154.637ZM157.107 405.584V410.027H159.852C160.626 410.027 161.232 409.835 161.668 409.451C162.104 409.067 162.322 408.533 162.322 407.85C162.322 406.372 161.567 405.617 160.057 405.584H157.107ZM157.107 403.768H159.529C160.298 403.768 160.896 403.595 161.326 403.25C161.762 402.898 161.98 402.404 161.98 401.766C161.98 401.062 161.779 400.555 161.375 400.242C160.978 399.93 160.356 399.773 159.51 399.773H157.107V403.768ZM169.254 412V397.781H174.127C175.735 397.781 176.959 398.104 177.799 398.748C178.639 399.393 179.059 400.353 179.059 401.629C179.059 402.28 178.883 402.866 178.531 403.387C178.18 403.908 177.665 404.311 176.988 404.598C177.757 404.806 178.349 405.2 178.766 405.779C179.189 406.352 179.4 407.042 179.4 407.85C179.4 409.184 178.971 410.21 178.111 410.926C177.258 411.642 176.035 412 174.439 412H169.254ZM171.725 405.584V410.027H174.469C175.243 410.027 175.849 409.835 176.285 409.451C176.721 409.067 176.939 408.533 176.939 407.85C176.939 406.372 176.184 405.617 174.674 405.584H171.725ZM171.725 403.768H174.146C174.915 403.768 175.514 403.595 175.943 403.25C176.38 402.898 176.598 402.404 176.598 401.766C176.598 401.062 176.396 400.555 175.992 400.242C175.595 399.93 174.973 399.773 174.127 399.773H171.725V403.768ZM183.871 412V397.781H188.744C190.352 397.781 191.576 398.104 192.416 398.748C193.256 399.393 193.676 400.353 193.676 401.629C193.676 402.28 193.5 402.866 193.148 403.387C192.797 403.908 192.283 404.311 191.605 404.598C192.374 404.806 192.966 405.2 193.383 405.779C193.806 406.352 194.018 407.042 194.018 407.85C194.018 409.184 193.588 410.21 192.729 410.926C191.876 411.642 190.652 412 189.057 412H183.871ZM186.342 405.584V410.027H189.086C189.861 410.027 190.466 409.835 190.902 409.451C191.339 409.067 191.557 408.533 191.557 407.85C191.557 406.372 190.801 405.617 189.291 405.584H186.342ZM186.342 403.768H188.764C189.532 403.768 190.131 403.595 190.561 403.25C190.997 402.898 191.215 402.404 191.215 401.766C191.215 401.062 191.013 400.555 190.609 400.242C190.212 399.93 189.59 399.773 188.744 399.773H186.342V403.768ZM200.959 410.027H207.414V412H198.488V397.781H200.959V410.027ZM219.619 405.652H213.779V410.027H220.605V412H211.309V397.781H220.537V399.773H213.779V403.699H219.619V405.652Z" fill="#4338CA"/>
<path d="M117.018 435.916H116.22L120.673 424.336H121.464L117.018 435.916ZM129.066 432.012H124.225L123.126 435H122.182L126.217 424.336H127.074L131.11 435H130.172L129.066 432.012ZM124.503 431.243H128.781L126.642 425.435L124.503 431.243ZM140.624 435H139.723L133.593 425.874V435H132.685V424.336H133.593L139.73 433.469V424.336H140.624V435ZM143.334 435V424.336H146.315C147.189 424.336 147.973 424.536 148.666 424.937C149.359 425.332 149.899 425.901 150.285 426.643C150.675 427.385 150.871 428.23 150.871 429.177V430.159C150.871 431.111 150.678 431.956 150.292 432.693C149.906 433.43 149.362 433.999 148.659 434.399C147.96 434.8 147.157 435 146.249 435H143.334ZM144.235 425.105V434.238H146.256C147.379 434.238 148.28 433.867 148.959 433.125C149.638 432.378 149.977 431.37 149.977 430.1V429.163C149.977 427.937 149.643 426.956 148.974 426.218C148.305 425.481 147.423 425.11 146.33 425.105H144.235ZM159.052 429.888H154.064V434.238H159.799V435H153.163V424.336H159.762V425.105H154.064V429.126H159.052V429.888ZM165.688 430.562H162.589V435H161.681V424.336H165.146C166.283 424.336 167.172 424.612 167.812 425.164C168.451 425.715 168.771 426.487 168.771 427.478C168.771 428.162 168.571 428.765 168.17 429.287C167.77 429.81 167.233 430.171 166.559 430.371L169.225 434.905V435H168.266L165.688 430.562ZM162.589 429.792H165.351C166.107 429.792 166.715 429.578 167.174 429.148C167.633 428.718 167.863 428.162 167.863 427.478C167.863 426.726 167.624 426.143 167.145 425.728C166.667 425.312 165.995 425.105 165.131 425.105H162.589V429.792ZM177.26 432.378C177.26 431.787 177.052 431.321 176.637 430.979C176.222 430.632 175.463 430.305 174.359 429.998C173.256 429.685 172.45 429.346 171.942 428.979C171.22 428.462 170.858 427.783 170.858 426.943C170.858 426.128 171.193 425.466 171.862 424.958C172.536 424.446 173.395 424.189 174.44 424.189C175.148 424.189 175.78 424.326 176.337 424.6C176.898 424.873 177.333 425.254 177.641 425.742C177.948 426.23 178.102 426.775 178.102 427.375H177.194C177.194 426.648 176.945 426.064 176.447 425.625C175.949 425.181 175.28 424.958 174.44 424.958C173.625 424.958 172.975 425.142 172.492 425.508C172.008 425.869 171.767 426.343 171.767 426.929C171.767 427.471 171.984 427.913 172.418 428.254C172.853 428.596 173.549 428.899 174.506 429.163C175.463 429.421 176.188 429.692 176.681 429.976C177.174 430.254 177.545 430.588 177.794 430.979C178.043 431.37 178.168 431.831 178.168 432.363C178.168 433.203 177.831 433.877 177.157 434.385C176.488 434.893 175.604 435.146 174.506 435.146C173.754 435.146 173.063 435.012 172.433 434.744C171.808 434.475 171.332 434.099 171.005 433.616C170.683 433.132 170.521 432.578 170.521 431.953H171.422C171.422 432.705 171.703 433.298 172.265 433.733C172.826 434.167 173.573 434.385 174.506 434.385C175.336 434.385 176.002 434.202 176.505 433.835C177.008 433.469 177.26 432.983 177.26 432.378ZM187.997 430.247C187.997 431.228 187.826 432.09 187.484 432.832C187.147 433.574 186.664 434.146 186.034 434.546C185.404 434.946 184.677 435.146 183.852 435.146C182.606 435.146 181.601 434.702 180.834 433.813C180.067 432.92 179.684 431.716 179.684 430.203V429.104C179.684 428.132 179.855 427.273 180.197 426.526C180.543 425.774 181.032 425.198 181.662 424.797C182.292 424.392 183.017 424.189 183.837 424.189C184.657 424.189 185.38 424.387 186.005 424.783C186.635 425.178 187.121 425.737 187.462 426.46C187.804 427.183 187.982 428.02 187.997 428.972V430.247ZM187.096 429.089C187.096 427.805 186.806 426.799 186.225 426.072C185.644 425.344 184.848 424.98 183.837 424.98C182.846 424.98 182.055 425.347 181.464 426.079C180.878 426.807 180.585 427.825 180.585 429.133V430.247C180.585 431.511 180.878 432.515 181.464 433.257C182.05 433.994 182.846 434.363 183.852 434.363C184.872 434.363 185.668 433.999 186.239 433.271C186.811 432.539 187.096 431.521 187.096 430.217V429.089ZM198.207 435H197.306L191.176 425.874V435H190.268V424.336H191.176L197.313 433.469V424.336H198.207V435ZM206.029 435.74H199.577V435H206.029V435.74ZM213.148 432.012H208.307L207.208 435H206.264L210.299 424.336H211.156L215.192 435H214.254L213.148 432.012ZM208.585 431.243H212.863L210.724 425.435L208.585 431.243ZM224.706 435H223.805L217.675 425.874V435H216.767V424.336H217.675L223.812 433.469V424.336H224.706V435ZM227.416 435V424.336H230.397C231.271 424.336 232.055 424.536 232.748 424.937C233.441 425.332 233.981 425.901 234.367 426.643C234.757 427.385 234.953 428.23 234.953 429.177V430.159C234.953 431.111 234.76 431.956 234.374 432.693C233.988 433.43 233.444 433.999 232.741 434.399C232.042 434.8 231.239 435 230.331 435H227.416ZM228.317 425.105V434.238H230.338C231.461 434.238 232.362 433.867 233.041 433.125C233.72 432.378 234.059 431.37 234.059 430.1V429.163C234.059 427.937 233.725 426.956 233.056 426.218C232.387 425.481 231.505 425.11 230.412 425.105H228.317ZM241.229 430.562H238.131V435H237.223V424.336H240.688C241.825 424.336 242.714 424.612 243.354 425.164C243.993 425.715 244.313 426.487 244.313 427.478C244.313 428.162 244.113 428.765 243.712 429.287C243.312 429.81 242.775 430.171 242.101 430.371L244.767 434.905V435H243.808L241.229 430.562ZM238.131 429.792H240.893C241.649 429.792 242.257 429.578 242.716 429.148C243.175 428.718 243.405 428.162 243.405 427.478C243.405 426.726 243.166 426.143 242.687 425.728C242.208 425.312 241.537 425.105 240.673 425.105H238.131V429.792ZM252.655 429.888H247.667V434.238H253.402V435H246.767V424.336H253.366V425.105H247.667V429.126H252.655V429.888Z" fill="#FFFFFE"/>
<path d="M292.912 443.163C307.41 443.163 319.162 431.41 319.162 416.913C319.162 402.415 307.41 390.663 292.912 390.663C278.415 390.663 266.662 402.415 266.662 416.913C266.662 431.41 278.415 443.163 292.912 443.163Z" fill="#16161A"/>
<path d="M263.833 417C263.794 411.857 265.144 406.798 267.741 402.358C270.285 397.948 273.947 394.286 278.358 391.742C282.798 389.145 287.856 387.794 293 387.833C298.143 387.794 303.201 389.145 307.641 391.742C312.052 394.286 315.714 397.948 318.258 402.358C320.855 406.798 322.205 411.857 322.166 417C322.205 422.143 320.855 427.202 318.258 431.642C315.714 436.052 312.052 439.714 307.641 442.258C303.201 444.855 298.143 446.206 293 446.167C287.856 446.206 282.798 444.855 278.358 442.258C273.947 439.714 270.285 436.052 267.741 431.642C265.144 427.202 263.794 422.143 263.833 417ZM268.675 417C268.622 422.928 270.809 428.657 274.8 433.042C277.001 428.986 280.021 425.43 283.666 422.6C287.073 419.624 291.128 417.487 295.508 416.358C294.925 414.997 294.361 413.772 293.816 412.683C286.793 414.872 279.472 415.955 272.116 415.892C270.6 415.892 269.472 415.872 268.733 415.833C268.733 415.989 268.723 416.183 268.704 416.417C268.684 416.65 268.675 416.844 268.675 417ZM269.433 410.992C270.288 411.069 271.552 411.108 273.225 411.108C279.484 411.142 285.714 410.258 291.716 408.483C289.093 403.678 285.814 399.261 281.975 395.358C278.9 396.916 276.202 399.126 274.07 401.833C271.905 404.531 270.326 407.65 269.433 410.992ZM278.125 436.192C284.765 441.439 293.691 442.771 301.575 439.692C300.811 433.101 299.284 426.622 297.025 420.383C292.981 421.409 289.26 423.435 286.204 426.275C282.891 429.024 280.147 432.392 278.125 436.192ZM287.05 393.492C290.788 397.468 293.985 401.92 296.558 406.733C301.201 404.982 305.318 402.07 308.516 398.275C304.184 394.606 298.676 392.618 293 392.675C290.989 392.679 288.987 392.953 287.05 393.492ZM298.658 410.875C299.241 412.119 299.902 413.694 300.641 415.6C303.519 415.328 306.65 415.192 310.033 415.192C312.444 415.192 314.836 415.25 317.208 415.367C316.928 410.156 314.916 405.187 311.491 401.25C308.209 405.607 303.759 408.944 298.658 410.875ZM302.1 419.683C304.081 425.431 305.431 431.377 306.125 437.417C309.17 435.461 311.741 432.85 313.65 429.775C315.573 426.723 316.771 423.271 317.15 419.683C314.311 419.489 311.725 419.392 309.391 419.392C307.252 419.392 304.822 419.489 302.1 419.683Z" fill="#4338CA"/>
<path d="M838.721 166L774.221 230.5V288C747.388 315.167 693.621 369.4 693.221 369C692.821 368.6 693.054 434.5 693.221 467.5" stroke="url(#paint8_linear_5_283)" stroke-width="3"/>
<path d="M850 161C850 165.418 846.418 169 842 169C837.582 169 834 165.418 834 161C834 156.582 837.582 153 842 153C846.418 153 850 156.582 850 161ZM837.2 161C837.2 163.651 839.349 165.8 842 165.8C844.651 165.8 846.8 163.651 846.8 161C846.8 158.349 844.651 156.2 842 156.2C839.349 156.2 837.2 158.349 837.2 161Z" fill="#4338CA"/>
<circle cx="842" cy="161" r="5" fill="#16161A"/>
<path d="M941.445 156V141.781H946.318C947.926 141.781 949.15 142.104 949.99 142.748C950.83 143.393 951.25 144.353 951.25 145.629C951.25 146.28 951.074 146.866 950.723 147.387C950.371 147.908 949.857 148.311 949.18 148.598C949.948 148.806 950.54 149.2 950.957 149.779C951.38 150.352 951.592 151.042 951.592 151.85C951.592 153.184 951.162 154.21 950.303 154.926C949.45 155.642 948.226 156 946.631 156H941.445ZM943.916 149.584V154.027H946.66C947.435 154.027 948.04 153.835 948.477 153.451C948.913 153.067 949.131 152.533 949.131 151.85C949.131 150.372 948.376 149.617 946.865 149.584H943.916ZM943.916 147.768H946.338C947.106 147.768 947.705 147.595 948.135 147.25C948.571 146.898 948.789 146.404 948.789 145.766C948.789 145.062 948.587 144.555 948.184 144.242C947.786 143.93 947.165 143.773 946.318 143.773H943.916V147.768ZM964.373 149.652H958.533V154.027H965.359V156H956.062V141.781H965.291V143.773H958.533V147.699H964.373V149.652ZM980.66 156H978.199V149.682H971.842V156H969.371V141.781H971.842V147.699H978.199V141.781H980.66V156ZM993.725 152.689H988.217L987.064 156H984.496L989.867 141.781H992.084L997.465 156H994.887L993.725 152.689ZM988.91 150.697H993.031L990.971 144.799L988.91 150.697ZM1012.37 156H1009.89L1003.56 145.912V156H1001.09V141.781H1003.56L1009.91 151.908V141.781H1012.37V156ZM1028.13 151.371C1027.99 152.888 1027.43 154.073 1026.46 154.926C1025.48 155.772 1024.18 156.195 1022.56 156.195C1021.43 156.195 1020.43 155.928 1019.56 155.395C1018.7 154.854 1018.04 154.089 1017.57 153.1C1017.1 152.11 1016.86 150.961 1016.84 149.652V148.324C1016.84 146.983 1017.07 145.801 1017.55 144.779C1018.02 143.757 1018.7 142.969 1019.59 142.416C1020.48 141.863 1021.51 141.586 1022.68 141.586C1024.24 141.586 1025.51 142.012 1026.46 142.865C1027.42 143.718 1027.98 144.923 1028.13 146.479H1025.67C1025.56 145.456 1025.26 144.721 1024.78 144.271C1024.3 143.816 1023.6 143.588 1022.68 143.588C1021.6 143.588 1020.77 143.982 1020.2 144.77C1019.62 145.551 1019.33 146.7 1019.32 148.217V149.477C1019.32 151.013 1019.59 152.185 1020.14 152.992C1020.69 153.799 1021.5 154.203 1022.56 154.203C1023.53 154.203 1024.26 153.985 1024.75 153.549C1025.23 153.113 1025.54 152.387 1025.67 151.371H1028.13ZM1040.66 149.652H1034.82V154.027H1041.65V156H1032.35V141.781H1041.58V143.773H1034.82V147.699H1040.66V149.652Z" fill="#4338CA"/>
<path d="M941.018 179.916H940.22L944.673 168.336H945.464L941.018 179.916ZM953.066 176.012H948.225L947.126 179H946.182L950.217 168.336H951.074L955.11 179H954.172L953.066 176.012ZM948.503 175.243H952.781L950.642 169.435L948.503 175.243ZM964.624 179H963.723L957.593 169.874V179H956.685V168.336H957.593L963.73 177.469V168.336H964.624V179ZM967.334 179V168.336H970.315C971.189 168.336 971.973 168.536 972.666 168.937C973.359 169.332 973.899 169.901 974.285 170.643C974.675 171.385 974.871 172.23 974.871 173.177V174.159C974.871 175.111 974.678 175.956 974.292 176.693C973.906 177.43 973.362 177.999 972.659 178.399C971.96 178.8 971.157 179 970.249 179H967.334ZM968.235 169.105V178.238H970.256C971.379 178.238 972.28 177.867 972.959 177.125C973.638 176.378 973.977 175.37 973.977 174.1V173.163C973.977 171.937 973.643 170.956 972.974 170.218C972.305 169.481 971.423 169.11 970.33 169.105H968.235ZM983.052 173.888H978.064V178.238H983.799V179H977.163V168.336H983.762V169.105H978.064V173.126H983.052V173.888ZM989.688 174.562H986.589V179H985.681V168.336H989.146C990.283 168.336 991.172 168.612 991.812 169.164C992.451 169.715 992.771 170.487 992.771 171.478C992.771 172.162 992.571 172.765 992.17 173.287C991.77 173.81 991.233 174.171 990.559 174.371L993.225 178.905V179H992.266L989.688 174.562ZM986.589 173.792H989.351C990.107 173.792 990.715 173.578 991.174 173.148C991.633 172.718 991.863 172.162 991.863 171.478C991.863 170.726 991.624 170.143 991.145 169.728C990.667 169.312 989.995 169.105 989.131 169.105H986.589V173.792ZM1001.26 176.378C1001.26 175.787 1001.05 175.321 1000.64 174.979C1000.22 174.632 999.463 174.305 998.359 173.998C997.256 173.685 996.45 173.346 995.942 172.979C995.22 172.462 994.858 171.783 994.858 170.943C994.858 170.128 995.193 169.466 995.862 168.958C996.536 168.446 997.395 168.189 998.44 168.189C999.148 168.189 999.78 168.326 1000.34 168.6C1000.9 168.873 1001.33 169.254 1001.64 169.742C1001.95 170.23 1002.1 170.775 1002.1 171.375H1001.19C1001.19 170.648 1000.94 170.064 1000.45 169.625C999.949 169.181 999.28 168.958 998.44 168.958C997.625 168.958 996.975 169.142 996.492 169.508C996.008 169.869 995.767 170.343 995.767 170.929C995.767 171.471 995.984 171.913 996.418 172.254C996.853 172.596 997.549 172.899 998.506 173.163C999.463 173.421 1000.19 173.692 1000.68 173.976C1001.17 174.254 1001.55 174.588 1001.79 174.979C1002.04 175.37 1002.17 175.831 1002.17 176.363C1002.17 177.203 1001.83 177.877 1001.16 178.385C1000.49 178.893 999.604 179.146 998.506 179.146C997.754 179.146 997.063 179.012 996.433 178.744C995.808 178.475 995.332 178.099 995.005 177.616C994.683 177.132 994.521 176.578 994.521 175.953H995.422C995.422 176.705 995.703 177.298 996.265 177.733C996.826 178.167 997.573 178.385 998.506 178.385C999.336 178.385 1000 178.202 1000.51 177.835C1001.01 177.469 1001.26 176.983 1001.26 176.378ZM1012 174.247C1012 175.228 1011.83 176.09 1011.48 176.832C1011.15 177.574 1010.66 178.146 1010.03 178.546C1009.4 178.946 1008.68 179.146 1007.85 179.146C1006.61 179.146 1005.6 178.702 1004.83 177.813C1004.07 176.92 1003.68 175.716 1003.68 174.203V173.104C1003.68 172.132 1003.85 171.273 1004.2 170.526C1004.54 169.774 1005.03 169.198 1005.66 168.797C1006.29 168.392 1007.02 168.189 1007.84 168.189C1008.66 168.189 1009.38 168.387 1010 168.783C1010.63 169.178 1011.12 169.737 1011.46 170.46C1011.8 171.183 1011.98 172.02 1012 172.972V174.247ZM1011.1 173.089C1011.1 171.805 1010.81 170.799 1010.22 170.072C1009.64 169.344 1008.85 168.98 1007.84 168.98C1006.85 168.98 1006.05 169.347 1005.46 170.079C1004.88 170.807 1004.58 171.825 1004.58 173.133V174.247C1004.58 175.511 1004.88 176.515 1005.46 177.257C1006.05 177.994 1006.85 178.363 1007.85 178.363C1008.87 178.363 1009.67 177.999 1010.24 177.271C1010.81 176.539 1011.1 175.521 1011.1 174.217V173.089ZM1022.21 179H1021.31L1015.18 169.874V179H1014.27V168.336H1015.18L1021.31 177.469V168.336H1022.21V179ZM1025.82 174.657V179H1024.92V168.336H1028.55C1029.66 168.336 1030.53 168.619 1031.17 169.186C1031.82 169.752 1032.14 170.531 1032.14 171.522C1032.14 172.523 1031.83 173.297 1031.21 173.844C1030.59 174.386 1029.7 174.657 1028.53 174.657H1025.82ZM1025.82 173.895H1028.55C1029.42 173.895 1030.09 173.688 1030.55 173.272C1031.01 172.857 1031.24 172.279 1031.24 171.537C1031.24 170.799 1031.01 170.213 1030.55 169.779C1030.1 169.339 1029.45 169.115 1028.61 169.105H1025.82V173.895ZM1040.05 173.888H1035.06V178.238H1040.8V179H1034.16V168.336H1040.76V169.105H1035.06V173.126H1040.05V173.888ZM1046.68 174.562H1043.59V179H1042.68V168.336H1046.14C1047.28 168.336 1048.17 168.612 1048.81 169.164C1049.45 169.715 1049.77 170.487 1049.77 171.478C1049.77 172.162 1049.57 172.765 1049.17 173.287C1048.77 173.81 1048.23 174.171 1047.56 174.371L1050.22 178.905V179H1049.26L1046.68 174.562ZM1043.59 173.792H1046.35C1047.1 173.792 1047.71 173.578 1048.17 173.148C1048.63 172.718 1048.86 172.162 1048.86 171.478C1048.86 170.726 1048.62 170.143 1048.14 169.728C1047.66 169.312 1046.99 169.105 1046.13 169.105H1043.59V173.792ZM1058.11 173.888H1053.12V178.238H1058.86V179H1052.22V168.336H1058.82V169.105H1053.12V173.126H1058.11V173.888ZM1061.86 179H1060.96V168.336H1061.86V179ZM1068.75 174.562H1065.65V179H1064.74V168.336H1068.2C1069.34 168.336 1070.23 168.612 1070.87 169.164C1071.51 169.715 1071.83 170.487 1071.83 171.478C1071.83 172.162 1071.63 172.765 1071.23 173.287C1070.83 173.81 1070.29 174.171 1069.62 174.371L1072.28 178.905V179H1071.32L1068.75 174.562ZM1065.65 173.792H1068.41C1069.17 173.792 1069.77 173.578 1070.23 173.148C1070.69 172.718 1070.92 172.162 1070.92 171.478C1070.92 170.726 1070.68 170.143 1070.2 169.728C1069.72 169.312 1069.05 169.105 1068.19 169.105H1065.65V173.792ZM1080.04 176.012H1075.2L1074.1 179H1073.15L1077.19 168.336H1078.05L1082.08 179H1081.15L1080.04 176.012ZM1075.48 175.243H1079.75L1077.61 169.435L1075.48 175.243ZM1085.26 173.192H1086.17C1086.67 173.192 1087.11 173.104 1087.49 172.928C1087.86 172.748 1088.15 172.503 1088.34 172.196C1088.54 171.883 1088.65 171.524 1088.65 171.119C1088.65 170.436 1088.45 169.901 1088.07 169.515C1087.68 169.129 1087.13 168.937 1086.4 168.937C1085.72 168.937 1085.16 169.139 1084.72 169.544C1084.28 169.945 1084.07 170.475 1084.07 171.134H1083.19C1083.19 170.582 1083.33 170.079 1083.61 169.625C1083.88 169.166 1084.27 168.812 1084.76 168.563C1085.26 168.314 1085.8 168.189 1086.4 168.189C1087.37 168.189 1088.13 168.453 1088.69 168.98C1089.25 169.508 1089.52 170.23 1089.52 171.148C1089.52 171.661 1089.36 172.135 1089.03 172.569C1088.71 172.999 1088.27 173.321 1087.7 173.536C1088.36 173.722 1088.87 174.042 1089.21 174.496C1089.55 174.945 1089.72 175.482 1089.72 176.107C1089.72 177.02 1089.42 177.755 1088.83 178.312C1088.23 178.868 1087.44 179.146 1086.44 179.146C1085.81 179.146 1085.22 179.02 1084.69 178.766C1084.16 178.512 1083.75 178.158 1083.46 177.704C1083.17 177.245 1083.03 176.712 1083.03 176.107H1083.91C1083.91 176.786 1084.14 177.34 1084.62 177.77C1085.09 178.194 1085.7 178.407 1086.44 178.407C1087.2 178.407 1087.79 178.214 1088.21 177.828C1088.63 177.438 1088.84 176.874 1088.84 176.136C1088.84 175.423 1088.61 174.879 1088.15 174.503C1087.7 174.127 1087.03 173.939 1086.14 173.939H1085.26V173.192ZM1097.02 175.565H1098.68V176.305H1097.02V179H1096.14V176.305H1091.12V175.807L1096.06 168.336H1097.02V175.565ZM1092.2 175.565H1096.14V169.471L1095.75 170.145L1092.2 175.565Z" fill="#FFFFFE"/>
<g clip-path="url(#clip0_5_283)">
<path fill-rule="evenodd" clip-rule="evenodd" d="M888.194 158.715C892.059 156.868 894.076 154.073 894.076 149.722C894.076 141.143 887.684 139.052 880.307 139.052H860V182.122H880.878C888.705 182.122 896.057 178.366 896.057 169.616C896.057 164.208 893.493 160.21 888.194 158.715ZM869.467 146.405H878.351C881.766 146.405 884.84 147.365 884.84 151.327C884.84 154.985 882.446 156.455 879.068 156.455H869.467V146.405ZM879.59 174.806H869.467V162.945H879.785C883.953 162.945 886.59 164.682 886.59 169.094C886.59 173.445 883.443 174.806 879.59 174.806Z" fill="#16161A"/>
<path d="M923.158 145.554H905.694V141.313H923.158V145.554Z" fill="#16161A"/>
<path fill-rule="evenodd" clip-rule="evenodd" d="M930 166.979C930 157.755 924.604 150.063 914.821 150.063C905.318 150.063 898.865 157.208 898.865 166.566C898.865 176.276 904.977 182.936 914.821 182.936C922.271 182.936 927.095 179.582 929.417 172.448H921.858C921.043 175.11 917.689 176.519 915.089 176.519C910.069 176.519 907.432 173.578 907.432 168.583H929.927C929.964 168.073 930 167.526 930 166.979ZM914.554 156.528C910.446 156.528 907.724 159.092 907.444 163.188H921.384C921.019 159.056 918.856 156.528 914.554 156.528Z" fill="#16161A"/>
</g>
<g clip-path="url(#clip1_5_283)">
<path d="M923.158 145.554H905.694V141.313H923.158V145.554Z" fill="#4338CA"/>
</g>
<path d="M829 701.561L858.564 656.373L916.704 644.22L954.361 668.856L978.313 664.211" stroke="url(#paint9_linear_5_283)" stroke-width="3"/>
<path d="M991 662C991 666.418 987.418 670 983 670C978.582 670 975 666.418 975 662C975 657.582 978.582 654 983 654C987.418 654 991 657.582 991 662ZM978.2 662C978.2 664.651 980.349 666.8 983 666.8C985.651 666.8 987.8 664.651 987.8 662C987.8 659.349 985.651 657.2 983 657.2C980.349 657.2 978.2 659.349 978.2 662Z" fill="#4338CA"/>
<circle cx="983" cy="662" r="5" fill="#16161A"/>
<path d="M1084.92 655.027H1091.37V657H1082.45V642.781H1084.92V655.027ZM1097.87 657H1095.41V642.781H1097.87V657ZM1114.19 657H1111.72L1105.38 646.912V657H1102.91V642.781H1105.38L1111.74 652.908V642.781H1114.19V657ZM1123.19 650.857L1121.58 652.566V657H1119.11V642.781H1121.58V649.451L1122.95 647.762L1127.11 642.781H1130.1L1124.81 649.08L1130.4 657H1127.47L1123.19 650.857ZM1142.04 650.652H1136.2V655.027H1143.02V657H1133.73V642.781H1142.96V644.773H1136.2V648.699H1142.04V650.652ZM1147.04 657V642.781H1151.23C1152.49 642.781 1153.6 643.061 1154.57 643.621C1155.55 644.181 1156.31 644.975 1156.84 646.004C1157.37 647.033 1157.64 648.211 1157.64 649.539V650.252C1157.64 651.6 1157.37 652.785 1156.83 653.807C1156.3 654.829 1155.53 655.617 1154.54 656.17C1153.55 656.723 1152.41 657 1151.13 657H1147.04ZM1149.51 644.773V655.027H1151.12C1152.41 655.027 1153.41 654.624 1154.1 653.816C1154.79 653.003 1155.15 651.837 1155.16 650.32V649.529C1155.16 647.986 1154.82 646.808 1154.15 645.994C1153.48 645.18 1152.51 644.773 1151.23 644.773H1149.51ZM1164.71 657H1162.25V642.781H1164.71V657ZM1181.03 657H1178.55L1172.22 646.912V657H1169.75V642.781H1172.22L1178.57 652.908V642.781H1181.03V657Z" fill="#4338CA"/>
<path d="M1082.02 680.916H1081.22L1085.67 669.336H1086.46L1082.02 680.916ZM1094.07 677.012H1089.23L1088.13 680H1087.18L1091.22 669.336H1092.07L1096.11 680H1095.17L1094.07 677.012ZM1089.5 676.243H1093.78L1091.64 670.435L1089.5 676.243ZM1105.62 680H1104.72L1098.59 670.874V680H1097.68V669.336H1098.59L1104.73 678.469V669.336H1105.62V680ZM1108.33 680V669.336H1111.31C1112.19 669.336 1112.97 669.536 1113.67 669.937C1114.36 670.332 1114.9 670.901 1115.28 671.643C1115.68 672.385 1115.87 673.23 1115.87 674.177V675.159C1115.87 676.111 1115.68 676.956 1115.29 677.693C1114.91 678.43 1114.36 678.999 1113.66 679.399C1112.96 679.8 1112.16 680 1111.25 680H1108.33ZM1109.23 670.105V679.238H1111.26C1112.38 679.238 1113.28 678.867 1113.96 678.125C1114.64 677.378 1114.98 676.37 1114.98 675.1V674.163C1114.98 672.937 1114.64 671.956 1113.97 671.218C1113.3 670.481 1112.42 670.11 1111.33 670.105H1109.23ZM1124.05 674.888H1119.06V679.238H1124.8V680H1118.16V669.336H1124.76V670.105H1119.06V674.126H1124.05V674.888ZM1130.69 675.562H1127.59V680H1126.68V669.336H1130.15C1131.28 669.336 1132.17 669.612 1132.81 670.164C1133.45 670.715 1133.77 671.487 1133.77 672.478C1133.77 673.162 1133.57 673.765 1133.17 674.287C1132.77 674.81 1132.23 675.171 1131.56 675.371L1134.23 679.905V680H1133.27L1130.69 675.562ZM1127.59 674.792H1130.35C1131.11 674.792 1131.72 674.578 1132.17 674.148C1132.63 673.718 1132.86 673.162 1132.86 672.478C1132.86 671.726 1132.62 671.143 1132.15 670.728C1131.67 670.312 1131 670.105 1130.13 670.105H1127.59V674.792ZM1142.26 677.378C1142.26 676.787 1142.05 676.321 1141.64 675.979C1141.22 675.632 1140.46 675.305 1139.36 674.998C1138.26 674.685 1137.45 674.346 1136.94 673.979C1136.22 673.462 1135.86 672.783 1135.86 671.943C1135.86 671.128 1136.19 670.466 1136.86 669.958C1137.54 669.446 1138.4 669.189 1139.44 669.189C1140.15 669.189 1140.78 669.326 1141.34 669.6C1141.9 669.873 1142.33 670.254 1142.64 670.742C1142.95 671.23 1143.1 671.775 1143.1 672.375H1142.19C1142.19 671.648 1141.94 671.064 1141.45 670.625C1140.95 670.181 1140.28 669.958 1139.44 669.958C1138.62 669.958 1137.98 670.142 1137.49 670.508C1137.01 670.869 1136.77 671.343 1136.77 671.929C1136.77 672.471 1136.98 672.913 1137.42 673.254C1137.85 673.596 1138.55 673.899 1139.51 674.163C1140.46 674.421 1141.19 674.692 1141.68 674.976C1142.17 675.254 1142.55 675.588 1142.79 675.979C1143.04 676.37 1143.17 676.831 1143.17 677.363C1143.17 678.203 1142.83 678.877 1142.16 679.385C1141.49 679.893 1140.6 680.146 1139.51 680.146C1138.75 680.146 1138.06 680.012 1137.43 679.744C1136.81 679.475 1136.33 679.099 1136 678.616C1135.68 678.132 1135.52 677.578 1135.52 676.953H1136.42C1136.42 677.705 1136.7 678.298 1137.26 678.733C1137.83 679.167 1138.57 679.385 1139.51 679.385C1140.34 679.385 1141 679.202 1141.51 678.835C1142.01 678.469 1142.26 677.983 1142.26 677.378ZM1153 675.247C1153 676.228 1152.83 677.09 1152.48 677.832C1152.15 678.574 1151.66 679.146 1151.03 679.546C1150.4 679.946 1149.68 680.146 1148.85 680.146C1147.61 680.146 1146.6 679.702 1145.83 678.813C1145.07 677.92 1144.68 676.716 1144.68 675.203V674.104C1144.68 673.132 1144.85 672.273 1145.2 671.526C1145.54 670.774 1146.03 670.198 1146.66 669.797C1147.29 669.392 1148.02 669.189 1148.84 669.189C1149.66 669.189 1150.38 669.387 1151 669.783C1151.63 670.178 1152.12 670.737 1152.46 671.46C1152.8 672.183 1152.98 673.02 1153 673.972V675.247ZM1152.1 674.089C1152.1 672.805 1151.81 671.799 1151.22 671.072C1150.64 670.344 1149.85 669.98 1148.84 669.98C1147.85 669.98 1147.05 670.347 1146.46 671.079C1145.88 671.807 1145.58 672.825 1145.58 674.133V675.247C1145.58 676.511 1145.88 677.515 1146.46 678.257C1147.05 678.994 1147.85 679.363 1148.85 679.363C1149.87 679.363 1150.67 678.999 1151.24 678.271C1151.81 677.539 1152.1 676.521 1152.1 675.217V674.089ZM1163.21 680H1162.31L1156.18 670.874V680H1155.27V669.336H1156.18L1162.31 678.469V669.336H1163.21V680ZM1168.44 675.664H1164.93V674.924H1168.44V675.664ZM1175.97 677.012H1171.12L1170.03 680H1169.08L1173.12 669.336H1173.97L1178.01 680H1177.07L1175.97 677.012ZM1171.4 676.243H1175.68L1173.54 670.435L1171.4 676.243ZM1187.52 680H1186.62L1180.49 670.874V680H1179.58V669.336H1180.49L1186.63 678.469V669.336H1187.52V680ZM1190.23 680V669.336H1193.21C1194.09 669.336 1194.87 669.536 1195.57 669.937C1196.26 670.332 1196.8 670.901 1197.18 671.643C1197.57 672.385 1197.77 673.23 1197.77 674.177V675.159C1197.77 676.111 1197.58 676.956 1197.19 677.693C1196.81 678.43 1196.26 678.999 1195.56 679.399C1194.86 679.8 1194.06 680 1193.15 680H1190.23ZM1191.13 670.105V679.238H1193.16C1194.28 679.238 1195.18 678.867 1195.86 678.125C1196.54 677.378 1196.88 676.37 1196.88 675.1V674.163C1196.88 672.937 1196.54 671.956 1195.87 671.218C1195.2 670.481 1194.32 670.11 1193.23 670.105H1191.13ZM1204.05 675.562H1200.95V680H1200.04V669.336H1203.5C1204.64 669.336 1205.53 669.612 1206.17 670.164C1206.81 670.715 1207.13 671.487 1207.13 672.478C1207.13 673.162 1206.93 673.765 1206.53 674.287C1206.13 674.81 1205.59 675.171 1204.92 675.371L1207.58 679.905V680H1206.62L1204.05 675.562ZM1200.95 674.792H1203.71C1204.47 674.792 1205.07 674.578 1205.53 674.148C1205.99 673.718 1206.22 673.162 1206.22 672.478C1206.22 671.726 1205.98 671.143 1205.5 670.728C1205.03 670.312 1204.35 670.105 1203.49 670.105H1200.95V674.792ZM1215.47 674.888H1210.48V679.238H1216.22V680H1209.58V669.336H1216.18V670.105H1210.48V674.126H1215.47V674.888ZM1220.64 675.664H1217.14V674.924H1220.64V675.664ZM1223.32 675.657V680H1222.42V669.336H1226.05C1227.16 669.336 1228.03 669.619 1228.67 670.186C1229.32 670.752 1229.64 671.531 1229.64 672.522C1229.64 673.523 1229.33 674.297 1228.71 674.844C1228.09 675.386 1227.2 675.657 1226.03 675.657H1223.32ZM1223.32 674.895H1226.05C1226.92 674.895 1227.59 674.688 1228.05 674.272C1228.51 673.857 1228.74 673.279 1228.74 672.537C1228.74 671.799 1228.51 671.213 1228.05 670.779C1227.59 670.339 1226.95 670.115 1226.11 670.105H1223.32V674.895ZM1237.55 674.888H1232.56V679.238H1238.29V680H1231.66V669.336H1238.26V670.105H1232.56V674.126H1237.55V674.888ZM1244.18 675.562H1241.09V680H1240.18V669.336H1243.64C1244.78 669.336 1245.67 669.612 1246.31 670.164C1246.95 670.715 1247.27 671.487 1247.27 672.478C1247.27 673.162 1247.07 673.765 1246.67 674.287C1246.27 674.81 1245.73 675.171 1245.06 675.371L1247.72 679.905V680H1246.76L1244.18 675.562ZM1241.09 674.792H1243.85C1244.6 674.792 1245.21 674.578 1245.67 674.148C1246.13 673.718 1246.36 673.162 1246.36 672.478C1246.36 671.726 1246.12 671.143 1245.64 670.728C1245.16 670.312 1244.49 670.105 1243.63 670.105H1241.09V674.792ZM1255.61 674.888H1250.62V679.238H1256.36V680H1249.72V669.336H1256.32V670.105H1250.62V674.126H1255.61V674.888ZM1259.36 680H1258.46V669.336H1259.36V680ZM1266.24 675.562H1263.15V680H1262.24V669.336H1265.7C1266.84 669.336 1267.73 669.612 1268.37 670.164C1269.01 670.715 1269.33 671.487 1269.33 672.478C1269.33 673.162 1269.13 673.765 1268.73 674.287C1268.33 674.81 1267.79 675.171 1267.12 675.371L1269.78 679.905V680H1268.82L1266.24 675.562ZM1263.15 674.792H1265.91C1266.66 674.792 1267.27 674.578 1267.73 674.148C1268.19 673.718 1268.42 673.162 1268.42 672.478C1268.42 671.726 1268.18 671.143 1267.7 670.728C1267.22 670.312 1266.55 670.105 1265.69 670.105H1263.15V674.792ZM1277.54 677.012H1272.7L1271.6 680H1270.65L1274.69 669.336H1275.55L1279.58 680H1278.64L1277.54 677.012ZM1272.98 676.243H1277.25L1275.11 670.435L1272.98 676.243Z" fill="#FFFFFE"/>
<g clip-path="url(#clip2_5_283)">
<g filter="url(#filter0_d_5_283)">
<path d="M1067.11 627H1004.89C1002.74 627 1001 628.741 1001 630.889V693.111C1001 695.259 1002.74 697 1004.89 697H1067.11C1069.26 697 1071 695.259 1071 693.111V630.889C1071 628.741 1069.26 627 1067.11 627Z" fill="#16161A"/>
</g>
<path fill-rule="evenodd" clip-rule="evenodd" d="M1013.77 654.074H1023.13V684.176H1013.77V654.074ZM1018.45 639.111C1021.45 639.111 1023.88 641.541 1023.88 644.533C1023.88 647.527 1021.45 649.959 1018.45 649.959C1017.73 649.973 1017.02 649.842 1016.35 649.576C1015.68 649.309 1015.07 648.912 1014.55 648.407C1014.04 647.902 1013.63 647.299 1013.35 646.635C1013.07 645.97 1012.93 645.256 1012.93 644.535C1012.93 643.814 1013.07 643.1 1013.35 642.435C1013.63 641.77 1014.04 641.168 1014.55 640.663C1015.07 640.158 1015.68 639.76 1016.35 639.494C1017.02 639.227 1017.73 639.097 1018.45 639.111ZM1029 654.073H1037.97V658.187H1038.1C1039.35 655.82 1042.4 653.326 1046.95 653.326C1056.42 653.326 1058.17 659.561 1058.17 667.666V684.176H1048.82V669.538C1048.82 666.047 1048.76 661.557 1043.96 661.557C1039.09 661.557 1038.35 665.359 1038.35 669.286V684.176H1029V654.074L1029 654.073Z" fill="#4338CA"/>
</g>
<path d="M374.59 643.724H428.59L470.59 685.724V730.724L487.59 748.224" stroke="url(#paint10_linear_5_283)" stroke-width="3"/>
<path d="M376 644C376 648.418 372.418 652 368 652C363.582 652 360 648.418 360 644C360 639.582 363.582 636 368 636C372.418 636 376 639.582 376 644ZM363.2 644C363.2 646.651 365.349 648.8 368 648.8C370.651 648.8 372.8 646.651 372.8 644C372.8 641.349 370.651 639.2 368 639.2C365.349 639.2 363.2 641.349 363.2 644Z" fill="#4338CA"/>
<circle cx="368" cy="644" r="5" fill="#16161A"/>
<path d="M9.75586 632.652H3.91602V637.027H10.7422V639H1.44531V624.781H10.6738V626.773H3.91602V630.699H9.75586V632.652ZM17.957 624.781L22.0586 635.68L26.1504 624.781H29.3438V639H26.8828V634.312L27.127 628.043L22.9277 639H21.1602L16.9707 628.053L17.2148 634.312V639H14.7539V624.781H17.957ZM42.4082 635.689H36.9004L35.748 639H33.1797L38.5508 624.781H40.7676L46.1484 639H43.5703L42.4082 635.689ZM37.5938 633.697H41.7148L39.6543 627.799L37.5938 633.697ZM52.377 639H49.916V624.781H52.377V639ZM59.8848 637.027H66.3398V639H57.4141V624.781H59.8848V637.027Z" fill="#4338CA"/>
<path d="M7.10449 659.012H2.26318L1.16455 662H0.219727L4.25537 651.336H5.1123L9.14795 662H8.21045L7.10449 659.012ZM2.5415 658.243H6.81885L4.68018 652.435L2.5415 658.243ZM18.6621 662H17.7612L11.6309 652.874V662H10.7227V651.336H11.6309L17.7686 660.469V651.336H18.6621V662ZM21.3721 662V651.336H24.353C25.2271 651.336 26.0107 651.536 26.7041 651.937C27.3975 652.332 27.937 652.901 28.3228 653.643C28.7134 654.385 28.9087 655.23 28.9087 656.177V657.159C28.9087 658.111 28.7158 658.956 28.3301 659.693C27.9443 660.43 27.3999 660.999 26.6968 661.399C25.9985 661.8 25.1953 662 24.2871 662H21.3721ZM22.2729 652.105V661.238H24.2944C25.4175 661.238 26.3184 660.867 26.9971 660.125C27.6758 659.378 28.0151 658.37 28.0151 657.1V656.163C28.0151 654.937 27.6807 653.956 27.0117 653.218C26.3428 652.481 25.4614 652.11 24.3677 652.105H22.2729ZM35.1855 657.562H32.0874V662H31.1792V651.336H34.6436C35.7812 651.336 36.6699 651.612 37.3096 652.164C37.9492 652.715 38.269 653.487 38.269 654.478C38.269 655.162 38.0688 655.765 37.6685 656.287C37.2681 656.81 36.731 657.171 36.0571 657.371L38.7231 661.905V662H37.7637L35.1855 657.562ZM32.0874 656.792H34.8486C35.6055 656.792 36.2134 656.578 36.6724 656.148C37.1313 655.718 37.3608 655.162 37.3608 654.478C37.3608 653.726 37.1216 653.143 36.6431 652.728C36.1646 652.312 35.4932 652.105 34.6289 652.105H32.0874V656.792ZM46.6113 656.888H41.6235V661.238H47.3584V662H40.7227V651.336H47.3218V652.105H41.6235V656.126H46.6113V656.888ZM55.0195 659.012H50.1782L49.0796 662H48.1348L52.1704 651.336H53.0273L57.063 662H56.1255L55.0195 659.012ZM50.4565 658.243H54.7339L52.5952 652.435L50.4565 658.243ZM66.5771 662H65.6763L59.5459 652.874V662H58.6377V651.336H59.5459L65.6836 660.469V651.336H66.5771V662ZM69.2871 662V651.336H72.2681C73.1421 651.336 73.9258 651.536 74.6191 651.937C75.3125 652.332 75.8521 652.901 76.2378 653.643C76.6284 654.385 76.8237 655.23 76.8237 656.177V657.159C76.8237 658.111 76.6309 658.956 76.2451 659.693C75.8594 660.43 75.3149 660.999 74.6118 661.399C73.9136 661.8 73.1104 662 72.2021 662H69.2871ZM70.188 652.105V661.238H72.2095C73.3325 661.238 74.2334 660.867 74.9121 660.125C75.5908 659.378 75.9302 658.37 75.9302 657.1V656.163C75.9302 654.937 75.5957 653.956 74.9268 653.218C74.2578 652.481 73.3765 652.11 72.2827 652.105H70.188ZM85.0049 656.888H80.0171V661.238H85.752V662H79.1162V651.336H85.7153V652.105H80.0171V656.126H85.0049V656.888ZM91.6406 657.562H88.5425V662H87.6343V651.336H91.0986C92.2363 651.336 93.125 651.612 93.7646 652.164C94.4043 652.715 94.7241 653.487 94.7241 654.478C94.7241 655.162 94.5239 655.765 94.1235 656.287C93.7231 656.81 93.186 657.171 92.5122 657.371L95.1782 661.905V662H94.2188L91.6406 657.562ZM88.5425 656.792H91.3037C92.0605 656.792 92.6685 656.578 93.1274 656.148C93.5864 655.718 93.8159 655.162 93.8159 654.478C93.8159 653.726 93.5767 653.143 93.0981 652.728C92.6196 652.312 91.9482 652.105 91.084 652.105H88.5425V656.792ZM103.213 659.378C103.213 658.787 103.005 658.321 102.59 657.979C102.175 657.632 101.416 657.305 100.312 656.998C99.209 656.685 98.4033 656.346 97.8955 655.979C97.1729 655.462 96.8115 654.783 96.8115 653.943C96.8115 653.128 97.146 652.466 97.8149 651.958C98.4888 651.446 99.3481 651.189 100.393 651.189C101.101 651.189 101.733 651.326 102.29 651.6C102.852 651.873 103.286 652.254 103.594 652.742C103.901 653.23 104.055 653.775 104.055 654.375H103.147C103.147 653.648 102.898 653.064 102.4 652.625C101.902 652.181 101.233 651.958 100.393 651.958C99.5776 651.958 98.9282 652.142 98.4448 652.508C97.9614 652.869 97.7197 653.343 97.7197 653.929C97.7197 654.471 97.937 654.913 98.3716 655.254C98.8062 655.596 99.502 655.899 100.459 656.163C101.416 656.421 102.141 656.692 102.634 656.976C103.127 657.254 103.499 657.588 103.748 657.979C103.997 658.37 104.121 658.831 104.121 659.363C104.121 660.203 103.784 660.877 103.11 661.385C102.441 661.893 101.558 662.146 100.459 662.146C99.707 662.146 99.0161 662.012 98.3862 661.744C97.7612 661.475 97.2852 661.099 96.958 660.616C96.6357 660.132 96.4746 659.578 96.4746 658.953H97.3755C97.3755 659.705 97.6562 660.298 98.2178 660.733C98.7793 661.167 99.5264 661.385 100.459 661.385C101.289 661.385 101.956 661.202 102.458 660.835C102.961 660.469 103.213 659.983 103.213 659.378ZM113.95 657.247C113.95 658.228 113.779 659.09 113.438 659.832C113.101 660.574 112.617 661.146 111.987 661.546C111.357 661.946 110.63 662.146 109.805 662.146C108.56 662.146 107.554 661.702 106.787 660.813C106.021 659.92 105.637 658.716 105.637 657.203V656.104C105.637 655.132 105.808 654.273 106.15 653.526C106.497 652.774 106.985 652.198 107.615 651.797C108.245 651.392 108.97 651.189 109.79 651.189C110.61 651.189 111.333 651.387 111.958 651.783C112.588 652.178 113.074 652.737 113.416 653.46C113.757 654.183 113.936 655.02 113.95 655.972V657.247ZM113.049 656.089C113.049 654.805 112.759 653.799 112.178 653.072C111.597 652.344 110.801 651.98 109.79 651.98C108.799 651.98 108.008 652.347 107.417 653.079C106.831 653.807 106.538 654.825 106.538 656.133V657.247C106.538 658.511 106.831 659.515 107.417 660.257C108.003 660.994 108.799 661.363 109.805 661.363C110.825 661.363 111.621 660.999 112.192 660.271C112.764 659.539 113.049 658.521 113.049 657.217V656.089ZM124.16 662H123.259L117.129 652.874V662H116.221V651.336H117.129L123.267 660.469V651.336H124.16V662ZM134.421 658.675C134.299 659.798 133.896 660.657 133.213 661.253C132.534 661.849 131.628 662.146 130.496 662.146C129.705 662.146 129.004 661.949 128.394 661.553C127.788 661.158 127.319 660.599 126.987 659.876C126.655 659.148 126.487 658.318 126.482 657.386V656.001C126.482 655.054 126.648 654.214 126.98 653.482C127.312 652.75 127.788 652.186 128.408 651.79C129.033 651.39 129.751 651.189 130.562 651.189C131.704 651.189 132.605 651.5 133.264 652.12C133.928 652.735 134.314 653.587 134.421 654.676H133.513C133.289 652.864 132.305 651.958 130.562 651.958C129.595 651.958 128.823 652.32 128.247 653.042C127.676 653.765 127.39 654.764 127.39 656.038V657.342C127.39 658.572 127.668 659.554 128.225 660.286C128.787 661.019 129.543 661.385 130.496 661.385C131.438 661.385 132.148 661.16 132.627 660.711C133.105 660.257 133.401 659.578 133.513 658.675H134.421ZM142.368 659.012H137.527L136.428 662H135.483L139.519 651.336H140.376L144.412 662H143.474L142.368 659.012ZM137.805 658.243H142.083L139.944 652.435L137.805 658.243ZM153.201 651.336V658.616C153.196 659.334 153.037 659.959 152.725 660.491C152.412 661.023 151.97 661.434 151.399 661.722C150.833 662.005 150.181 662.146 149.443 662.146C148.32 662.146 147.419 661.841 146.741 661.231C146.067 660.616 145.718 659.766 145.693 658.682V651.336H146.587V658.55C146.587 659.449 146.843 660.147 147.356 660.645C147.869 661.138 148.564 661.385 149.443 661.385C150.322 661.385 151.016 661.136 151.523 660.638C152.036 660.14 152.292 659.446 152.292 658.558V651.336H153.201ZM161.602 656.888H156.614V661.238H162.349V662H155.713V651.336H162.312V652.105H156.614V656.126H161.602V656.888ZM163.967 661.473C163.967 661.302 164.021 661.158 164.128 661.041C164.241 660.918 164.395 660.857 164.59 660.857C164.785 660.857 164.939 660.918 165.051 661.041C165.164 661.158 165.22 661.302 165.22 661.473C165.22 661.644 165.164 661.785 165.051 661.897C164.939 662.005 164.785 662.059 164.59 662.059C164.395 662.059 164.241 662.005 164.128 661.897C164.021 661.785 163.967 661.644 163.967 661.473ZM173.73 656.888H168.743V661.238H174.478V662H167.842V651.336H174.441V652.105H168.743V656.126H173.73V656.888ZM187.881 658.243C187.856 658.96 187.725 659.627 187.485 660.242C187.246 660.853 186.914 661.324 186.489 661.656C186.069 661.983 185.581 662.146 185.024 662.146C184.551 662.146 184.165 662.022 183.867 661.773C183.569 661.524 183.372 661.175 183.274 660.726C182.747 661.673 182.019 662.146 181.091 662.146C180.408 662.146 179.897 661.851 179.561 661.26C179.224 660.669 179.099 659.874 179.187 658.873C179.26 658.077 179.441 657.369 179.729 656.749C180.022 656.124 180.4 655.638 180.864 655.291C181.333 654.939 181.833 654.764 182.366 654.764C182.742 654.764 183.071 654.817 183.354 654.925C183.638 655.027 183.967 655.237 184.343 655.555L183.97 659.729C183.921 660.296 183.992 660.735 184.182 661.048C184.377 661.36 184.688 661.517 185.112 661.517C185.713 661.517 186.199 661.224 186.57 660.638C186.946 660.047 187.156 659.249 187.2 658.243C187.292 656.265 186.917 654.778 186.072 653.782C185.227 652.781 183.948 652.281 182.234 652.281C181.204 652.281 180.273 652.54 179.443 653.057C178.618 653.57 177.966 654.297 177.488 655.24C177.009 656.182 176.741 657.269 176.682 658.499C176.624 659.729 176.785 660.813 177.166 661.751C177.551 662.684 178.13 663.401 178.901 663.904C179.678 664.407 180.601 664.659 181.67 664.659C182.119 664.659 182.561 664.605 182.996 664.498C183.43 664.39 183.794 664.251 184.087 664.08L184.314 664.666C184.036 664.852 183.647 665.005 183.149 665.127C182.651 665.254 182.148 665.318 181.641 665.318C180.42 665.318 179.37 665.042 178.491 664.49C177.612 663.943 176.953 663.152 176.514 662.117C176.079 661.087 175.891 659.881 175.95 658.499C176.008 657.142 176.306 655.94 176.843 654.896C177.385 653.846 178.125 653.035 179.062 652.464C180 651.888 181.067 651.6 182.263 651.6C183.508 651.6 184.563 651.861 185.427 652.383C186.292 652.901 186.931 653.66 187.346 654.661C187.761 655.662 187.939 656.856 187.881 658.243ZM179.963 659.905C180.017 660.394 180.154 660.772 180.374 661.041C180.593 661.304 180.884 661.436 181.245 661.436C182.148 661.436 182.815 660.813 183.245 659.568L183.574 655.789C183.247 655.55 182.861 655.43 182.417 655.43C181.875 655.43 181.404 655.647 181.003 656.082C180.608 656.512 180.317 657.107 180.132 657.869C179.946 658.626 179.89 659.305 179.963 659.905ZM197.776 660.733C197.463 661.177 196.973 661.524 196.304 661.773C195.64 662.022 194.895 662.146 194.07 662.146C193.235 662.146 192.493 661.946 191.843 661.546C191.194 661.146 190.691 660.579 190.334 659.847C189.978 659.114 189.797 658.274 189.792 657.327V655.979C189.792 654.5 190.166 653.333 190.913 652.479C191.66 651.619 192.664 651.189 193.923 651.189C195.022 651.189 195.906 651.47 196.575 652.032C197.244 652.588 197.642 653.357 197.769 654.339H196.868C196.736 653.558 196.416 652.967 195.908 652.566C195.405 652.161 194.746 651.958 193.931 651.958C192.935 651.958 192.146 652.312 191.565 653.021C190.984 653.729 190.693 654.727 190.693 656.016V657.276C190.693 658.086 190.83 658.804 191.104 659.429C191.382 660.049 191.777 660.53 192.29 660.872C192.808 661.214 193.401 661.385 194.07 661.385C194.846 661.385 195.513 661.263 196.069 661.019C196.431 660.857 196.699 660.669 196.875 660.455V657.701H194.011V656.939H197.776V660.733ZM201.526 651.336L205.459 660.748L209.407 651.336H210.608V662H209.707V657.356L209.78 652.596L205.811 662H205.115L201.16 652.632L201.233 657.327V662H200.332V651.336H201.526ZM219.199 659.012H214.358L213.259 662H212.314L216.35 651.336H217.207L221.243 662H220.305L219.199 659.012ZM214.636 658.243H218.914L216.775 652.435L214.636 658.243ZM223.916 662H223.015V651.336H223.916V662ZM227.725 661.238H232.991V662H226.816V651.336H227.725V661.238ZM234.441 661.473C234.441 661.302 234.495 661.158 234.602 661.041C234.714 660.918 234.868 660.857 235.063 660.857C235.259 660.857 235.413 660.918 235.525 661.041C235.637 661.158 235.693 661.302 235.693 661.473C235.693 661.644 235.637 661.785 235.525 661.897C235.413 662.005 235.259 662.059 235.063 662.059C234.868 662.059 234.714 662.005 234.602 661.897C234.495 661.785 234.441 661.644 234.441 661.473ZM245.867 658.675C245.745 659.798 245.342 660.657 244.658 661.253C243.979 661.849 243.074 662.146 241.941 662.146C241.15 662.146 240.449 661.949 239.839 661.553C239.233 661.158 238.765 660.599 238.433 659.876C238.101 659.148 237.932 658.318 237.927 657.386V656.001C237.927 655.054 238.093 654.214 238.425 653.482C238.757 652.75 239.233 652.186 239.854 651.79C240.479 651.39 241.196 651.189 242.007 651.189C243.149 651.189 244.05 651.5 244.709 652.12C245.374 652.735 245.759 653.587 245.867 654.676H244.958C244.734 652.864 243.75 651.958 242.007 651.958C241.04 651.958 240.269 652.32 239.692 653.042C239.121 653.765 238.835 654.764 238.835 656.038V657.342C238.835 658.572 239.114 659.554 239.67 660.286C240.232 661.019 240.989 661.385 241.941 661.385C242.883 661.385 243.594 661.16 244.072 660.711C244.551 660.257 244.846 659.578 244.958 658.675H245.867ZM255.938 657.247C255.938 658.228 255.767 659.09 255.425 659.832C255.088 660.574 254.604 661.146 253.975 661.546C253.345 661.946 252.617 662.146 251.792 662.146C250.547 662.146 249.541 661.702 248.774 660.813C248.008 659.92 247.625 658.716 247.625 657.203V656.104C247.625 655.132 247.795 654.273 248.137 653.526C248.484 652.774 248.972 652.198 249.602 651.797C250.232 651.392 250.957 651.189 251.777 651.189C252.598 651.189 253.32 651.387 253.945 651.783C254.575 652.178 255.061 652.737 255.403 653.46C255.745 654.183 255.923 655.02 255.938 655.972V657.247ZM255.037 656.089C255.037 654.805 254.746 653.799 254.165 653.072C253.584 652.344 252.788 651.98 251.777 651.98C250.786 651.98 249.995 652.347 249.404 653.079C248.818 653.807 248.525 654.825 248.525 656.133V657.247C248.525 658.511 248.818 659.515 249.404 660.257C249.99 660.994 250.786 661.363 251.792 661.363C252.812 661.363 253.608 660.999 254.18 660.271C254.751 659.539 255.037 658.521 255.037 657.217V656.089ZM259.402 651.336L263.335 660.748L267.283 651.336H268.484V662H267.583V657.356L267.656 652.596L263.687 662H262.991L259.036 652.632L259.109 657.327V662H258.208V651.336H259.402Z" fill="#FFFFFE"/>
<g clip-path="url(#clip3_5_283)">
<path d="M288.75 617.75H341.25V670.25H288.75V617.75Z" fill="#16161A"/>
<path d="M315 649.521L341.25 670.25V629.326L315 649.521Z" fill="#16161A"/>
<path d="M343.438 617.75H341.25L315 638.479L288.75 617.75H286.562C284.822 617.75 283.153 618.441 281.922 619.672C280.691 620.903 280 622.572 280 624.312V663.688C280 665.428 280.691 667.097 281.922 668.328C283.153 669.559 284.822 670.25 286.562 670.25H288.75V629.326L315 649.517L341.25 629.322V670.25H343.438C345.178 670.25 346.847 669.559 348.078 668.328C349.309 667.097 350 665.428 350 663.688V624.312C350 622.572 349.309 620.903 348.078 619.672C346.847 618.441 345.178 617.75 343.438 617.75Z" fill="#4338CA"/>
</g>
<defs>
<filter id="filter0_d_5_283" x="997" y="627" width="78" height="78" filterUnits="userSpaceOnUse" color-interpolation-filters="sRGB">
<feFlood flood-opacity="0" result="BackgroundImageFix"/>
<feColorMatrix in="SourceAlpha" type="matrix" values="0 0 0 0 0 0 0 0 0 0 0 0 0 0 0 0 0 0 127 0" result="hardAlpha"/>
<feOffset dy="4"/>
<feGaussianBlur stdDeviation="2"/>
<feComposite in2="hardAlpha" operator="out"/>
<feColorMatrix type="matrix" values="0 0 0 0 0 0 0 0 0 0 0 0 0 0 0 0 0 0 0.25 0"/>
<feBlend mode="normal" in2="BackgroundImageFix" result="effect1_dropShadow_5_283"/>
<feBlend mode="normal" in="SourceGraphic" in2="effect1_dropShadow_5_283" result="shape"/>
</filter>
<linearGradient id="paint0_linear_5_283" x1="660" y1="478" x2="660" y2="1164" gradientUnits="userSpaceOnUse">
<stop stop-color="#0F0C0F"/>
<stop offset="1" stop-opacity="0"/>
</linearGradient>
<linearGradient id="paint1_linear_5_283" x1="660" y1="487" x2="660" y2="1154" gradientUnits="userSpaceOnUse">
<stop stop-color="#181719"/>
<stop offset="0.963542" stop-color="#171719" stop-opacity="0"/>
</linearGradient>
<linearGradient id="paint2_linear_5_283" x1="660" y1="756" x2="660" y2="934" gradientUnits="userSpaceOnUse">
<stop stop-color="#4338CA"/>
<stop offset="1" stop-color="#4338CA" stop-opacity="0"/>
</linearGradient>
<linearGradient id="paint3_linear_5_283" x1="660" y1="756" x2="660" y2="934" gradientUnits="userSpaceOnUse">
<stop stop-color="#4338CA"/>
<stop offset="1" stop-color="#4338CA" stop-opacity="0"/>
</linearGradient>
<linearGradient id="paint4_linear_5_283" x1="353" y1="148.5" x2="421.993" y2="492.291" gradientUnits="userSpaceOnUse">
<stop stop-color="white"/>
<stop offset="1" stop-color="white" stop-opacity="0"/>
</linearGradient>
<linearGradient id="paint5_linear_5_283" x1="564" y1="89" x2="435.498" y2="174.99" gradientUnits="userSpaceOnUse">
<stop stop-color="white"/>
<stop offset="1" stop-color="white" stop-opacity="0"/>
</linearGradient>
<linearGradient id="paint6_linear_5_283" x1="838.75" y1="382" x2="794.5" y2="468" gradientUnits="userSpaceOnUse">
<stop stop-color="white"/>
<stop offset="1" stop-color="white" stop-opacity="0"/>
</linearGradient>
<linearGradient id="paint7_linear_5_283" x1="384" y1="370" x2="466.734" y2="355.07" gradientUnits="userSpaceOnUse">
<stop stop-color="white"/>
<stop offset="0.272331" stop-color="white" stop-opacity="0.328859"/>
<stop offset="1" stop-color="white" stop-opacity="0"/>
</linearGradient>
<linearGradient id="paint8_linear_5_283" x1="765.86" y1="166" x2="576.67" y2="333.031" gradientUnits="userSpaceOnUse">
<stop stop-color="white"/>
<stop offset="1" stop-color="white" stop-opacity="0"/>
</linearGradient>
<linearGradient id="paint9_linear_5_283" x1="977.891" y1="665.836" x2="852.329" y2="736.992" gradientUnits="userSpaceOnUse">
<stop stop-color="white"/>
<stop offset="1" stop-color="white" stop-opacity="0"/>
</linearGradient>
<linearGradient id="paint10_linear_5_283" x1="485.999" y1="748.761" x2="357.712" y2="682.644" gradientUnits="userSpaceOnUse">
<stop stop-color="white" stop-opacity="0"/>
<stop offset="1" stop-color="white"/>
</linearGradient>
<clipPath id="clip0_5_283">
<rect width="70" height="70" fill="white" transform="translate(860 126)"/>
</clipPath>
<clipPath id="clip1_5_283">
<rect width="70" height="70" fill="white" transform="translate(860 126)"/>
</clipPath>
<clipPath id="clip2_5_283">
<rect width="70" height="70" fill="white" transform="translate(1001 627)"/>
</clipPath>
<clipPath id="clip3_5_283">
<rect width="70" height="70" fill="white" transform="translate(280 609)"/>
</clipPath>
</defs>
</svg>
